<?xml version="1.0" encoding="utf-8" ?>
<svg baseProfile="full" height="200mm" version="1.1" viewBox="0,0,200,200" width="200mm" xmlns="http://www.w3.org/2000/svg" xmlns:ev="http://www.w3.org/2001/xml-events" xmlns:xlink="http://www.w3.org/1999/xlink"><defs /><rect fill="#1a1a1a" height="200" width="200" x="0" y="0" /><text alignment-baseline="middle" fill="#e1ed5e" style="dominant-baseline: central; font-size:9.0px; font-family:Arial;" text-anchor="middle" x="100.0" y="100.0">2020</text><line stroke="#e1ed5e" stroke-width="0.3" x1="100.0" x2="100.0" y1="15.0" y2="10.0" /><path d="M 100.0 14.0 a86.0,86.0 0 0,1 42.35913384403234,11.155469271406648" fill="none" id="id13" stroke="none" /><text fill="#e1ed5e" style="font-size:6.75px; font-family:Arial;" text-anchor="middle"><textPath startOffset="22.145653131862478" xlink:href="#id13">January</textPath></text><line stroke="#e1ed5e" stroke-width="0.3" x1="143.13028292997686" x2="145.6673583964461" y1="26.7553504044142" y2="22.446841604673864" /><path d="M 143.63769802327073 25.89364864446614 a86.0,86.0 0 0,1 29.32050498858742,28.57503671076993" fill="none" id="id14" stroke="none" /><text fill="#e1ed5e" style="font-size:6.75px; font-family:Arial;" text-anchor="middle"><textPath startOffset="20.669276256404974" xlink:href="#id14">February</textPath></text><path d="M 111.5731344415666 82.4767994020092 l 7.669101685180454 -11.611997416459198 a34.915947853362084,34.915947853362084 0 0,0 0.4973090289310547,0.3346117088616077 l -7.86730700220851 11.478636033540472" fill="#ff740a" stroke="none" /><path d="M 112.16784306229584 82.88440491214696 l 11.554322333885237 -16.252601350037747 a40.94114879435405,40.94114879435405 0 0,0 0.5693139478598244,0.41213939401079136 l -11.831617292119029 16.05186118465388" fill="#ffca12" stroke="none" /><path d="M 112.7482090630111 83.31218511350987 l 13.005872335780456 -17.02510438164738 a42.424446187022156,42.424446187022156 0 0,0 0.5749321661516433,0.44707072984563584 l -13.296214446567324 16.799332600180954" fill="#ffdf14" stroke="none" /><path d="M 113.03279911837588 83.53348406188908 l 3.974224471404368 -5.021302791948939 a27.403744363850226,27.403744363850226 0 0,0 0.36636095807296903,0.2951144544920953 l -4.0598361998325965 4.952340043663435" fill="#ff0000" stroke="none" /><path d="M 113.31354834802062 83.75963576809568 l 6.26240500024322 -7.639115847487009 a30.877945500882177,30.877945500882177 0 0,0 0.40703846776164276,0.33956596663152494 l -6.392617802166756 7.530487696943614" fill="#ff3705" stroke="none" /><path d="M 113.59037401385872 83.9905735841838 l 10.084078832337696 -11.879019508438251 a36.58203293471868,36.58203293471868 0 0,0 0.47525377412295866,0.41051289083025316 l -10.286512086223516 11.704162485143277" fill="#ff8c0c" stroke="none" /><path d="M 113.86319453409587 84.22622945171908 l 11.520909843013623 -13.108680537099596 a38.451901587923935,38.451901587923935 0 0,0 0.4920652734200448,0.44000780171724824 l -11.744240143257043 12.908977205498962" fill="#ffa70f" stroke="none" /><path d="M 114.65682725009322 84.96080404539774 l 5.058200096268201 -5.190158901878419 a28.247284846108606,28.247284846108606 0 0,0 0.34435872166639386,0.3414155024146395 l -5.146550738064557 5.1025633892351205" fill="#ff0d01" stroke="none" /><path d="M 116.1254893667686 86.54754324733833 l 8.775762547856885 -7.3210532382329845 a32.42855322485787,32.42855322485787 0 0,0 0.3529356660490823,0.43052412604329904 l -8.900145033144597 7.16932683049119" fill="#ff4f07" stroke="none" /><path d="M 116.7966241395341 87.39550010848427 l 25.542163030613423 -19.167315317289347 a52.93412076063517,52.93412076063517 0 0,0 0.539166739324083,0.7314832318636088 l -25.867431789521333 18.726025776156863" fill="#98ff23" stroke="none" /><path d="M 117.42321728460499 88.27688183743584 l 12.152873377499425 -8.176995573888115 a35.647716134091354,35.647716134091354 0 0,0 0.33725380972073077,0.5106452525900982 l -12.29145162614088 7.96717044295896" fill="#ff7f0b" stroke="none" /><line stroke="#e1ed5e" stroke-width="0.3" x1="172.87174338648825" x2="177.1583165268699" y1="56.24261187166439" y2="53.66864786411523" /><path d="M 173.72905801456457 55.72781907015455 a86.0,86.0 0 0,1 12.242430191666344,42.057860355516425" fill="none" id="id15" stroke="none" /><text fill="#e1ed5e" style="font-size:6.75px; font-family:Arial;" text-anchor="middle"><textPath startOffset="22.145653131862474" xlink:href="#id15">March</textPath></text><path d="M 119.4528033332814 92.08871423366111 l 28.2010352185093 -11.469115515011975 a51.44403058223878,51.44403058223878 0 0,0 0.32566845669933525,0.8208972532639264 l -28.393762350174757 10.983317244534483" fill="#aaff21" stroke="none" /><path d="M 120.26092885502905 94.47779374421319 l 9.321774932340265 -2.54069120990121 a30.661811409527544,30.661811409527544 0 0,0 0.13405127737981756,0.5090145346955173 l -9.364015690524813 2.380296170832894" fill="#ff3304" stroke="none" /><path d="M 120.86939407059847 97.66154086499901 l 6.605709403330383 -0.7401835168344616 a27.647049598118016,27.647049598118016 0 0,0 0.04880047540680717,0.4721003313383152 l -6.617442271218857 0.626678663213215" fill="#ff0400" stroke="none" /><line stroke="#e1ed5e" stroke-width="0.3" x1="184.99686870605535" x2="189.99668451229388" y1="99.2704041080226" y2="99.22748670261217" /><path d="M 185.99683186730306 99.26182062694052 a86.0,86.0 0 0,1 -10.086455211305974,41.156179273409016" fill="none" id="id16" stroke="none" /><text fill="#e1ed5e" style="font-size:6.75px; font-family:Arial;" text-anchor="middle"><textPath startOffset="21.40746469413373" xlink:href="#id16">April</textPath></text><path d="M 120.99922638620191 99.81974689727618 l 15.139944105182272 -0.12995821130904192 a36.14050186237993,36.14050186237993 0 0,0 0.0,0.6204226280657358 l -15.139944105182272 -0.1299582113090401" fill="#ff860c" stroke="none" /><path d="M 120.98066250479742 100.90099992219065 l 6.803188554412893 0.29215818884521355 a27.80945892962164,27.80945892962164 0 0,0 -0.024576159800309503,0.4767709345521497 l -6.797170805156011 -0.40890091677409385" fill="#ff0601" stroke="none" /><line stroke="#e1ed5e" stroke-width="0.3" x1="174.33088141563837" x2="178.70328620479359" y1="141.23008692659167" y2="143.65538615756765" /><path d="M 175.20536237346943 141.71514677278685 a86.0,86.0 0 0,1 -30.301960400862466,31.631185727798858" fill="none" id="id17" stroke="none" /><text fill="#e1ed5e" style="font-size:6.75px; font-family:Arial;" text-anchor="middle"><textPath startOffset="22.145653131862474" xlink:href="#id17">May</textPath></text><line stroke="#e1ed5e" stroke-width="0.3" x1="143.1302829299769" x2="145.66735839644613" y1="173.24464959558577" y2="177.55315839532614" /><path d="M 143.63769802327073 174.10635135553383 a86.0,86.0 0 0,1 -40.68552437913181,11.842963189579606" fill="none" id="id18" stroke="none" /><text fill="#e1ed5e" style="font-size:6.75px; font-family:Arial;" text-anchor="middle"><textPath startOffset="21.407464694133747" xlink:href="#id18">June</textPath></text><path d="M 108.73861861582097 119.09545874513695 l 3.86196919752519 8.439099671064396 a30.280797882768084,30.280797882768084 0 0,0 -0.4745240349550802,0.21224856513335283 l -3.716531759714483 -8.504151987107598" fill="#ff2d04" stroke="none" /><line stroke="#e1ed5e" stroke-width="0.3" x1="101.45913802915013" x2="101.54496967792366" y1="184.9874750549273" y2="189.98673829345242" /><path d="M 101.47630435890484 185.9873277026323 a86.0,86.0 0 0,1 -42.54439059252881,-10.42667462771756" fill="none" id="id19" stroke="none" /><text fill="#e1ed5e" style="font-size:6.75px; font-family:Arial;" text-anchor="middle"><textPath startOffset="22.145653131862474" xlink:href="#id19">July</textPath></text><path d="M 93.95794788825049 120.11202640906438 l -8.89766499816615 29.617432970188254 a51.92508331699666,51.92508331699666 0 0,0 -0.8514708966251745,-0.26378786031815465 l 9.404776527662959 -29.46032852206345" fill="#a4ff21" stroke="none" /><path d="M 91.92203290615298 119.3841803445677 l -11.905539425905095 28.568960562724943 a51.95040188198392,51.95040188198392 0 0,0 -0.8202348140412329,-0.3501094679372637 l 12.39420931511676 -28.360376445128278" fill="#a4ff21" stroke="none" /><line stroke="#e1ed5e" stroke-width="0.3" x1="58.13341422392154" x2="55.67067388415222" y1="173.97424548756322" y2="178.32567169271397" /><path d="M 57.64086615596768 174.84453072859336 a86.0,86.0 0 0,1 -31.369924170532247,-30.572349798747897" fill="none" id="id20" stroke="none" /><text fill="#e1ed5e" style="font-size:6.75px; font-family:Arial;" text-anchor="middle"><textPath startOffset="22.145653131862474" xlink:href="#id20">August</textPath></text><path d="M 89.65649057296885 118.27599006163327 l -14.448874882033552 25.529777452102326 a50.33495393060184,50.33495393060184 0 0,0 -0.7483310355730322,-0.4320491248310448 l 14.884998385466982 -25.277981429995112" fill="#b8ff1f" stroke="none" /><path d="M 87.54013794807813 116.9041958592261 l -11.585033666527673 15.717323138782701 a40.52555381297785,40.52555381297785 0 0,0 -0.5564486816527647,-0.417569464510317 l 11.853135337091203 -15.51613464700837" fill="#ffc512" stroke="none" /><path d="M 87.2517909369889 116.68781488649013 l -18.843032598086257 24.666134540367363 a52.03994314840227,52.03994314840227 0 0,0 -0.7052404905611129,-0.548399271069292 l 19.263683033282597 -24.339034217677277" fill="#a3ff22" stroke="none" /><path d="M 86.96720088162412 116.46651593811092 l -11.682380382046224 14.760305979458003 a39.82404430503823,39.82404430503823 0 0,0 -0.5324080838084478,-0.4288702651252955 l 11.934039236209934 -14.557587420539297" fill="#ffbb11" stroke="none" /><path d="M 85.86807049272751 115.53346607816431 l -20.844665283810667 22.91193859480655 a51.97510292099588,51.97510292099588 0 0,0 -0.65481261265657,-0.6060847784902444 l 21.234907667781204 -22.55073607018393" fill="#a4ff21" stroke="none" /><path d="M 85.60350026404147 115.28858382429668 l -21.29417575138347 22.613676721097526 a52.06155655753774,52.06155655753774 0 0,0 -0.6453836000288637,-0.618262889659989 l 21.679231837277648 -22.244801701131955" fill="#a3ff22" stroke="none" /><path d="M 85.34317274990678 115.03919595460226 l -13.939358172589134 14.303009475507146 a40.972025093118994,40.972025093118994 0 0,0 -0.49948426059411366,-0.4952151900022177 l 14.182834353313211 -14.06161427527627" fill="#ffcb12" stroke="none" /><path d="M 83.8745106332314 113.45245675266167 l -24.876752298355644 20.753071539643315 a53.39664771613409,53.39664771613409 0 0,0 -0.581141603691276,-0.7088982642003544 l 25.22934072128555 -20.322970993744466" fill="#93ff23" stroke="none" /><path d="M 82.37810715431573 111.42229804090323 l -28.59679803710838 18.53609899094154 a55.078788472848466,55.078788472848466 0 0,0 -0.5074652921988593,-0.7978197270812618 l 28.91078102093313 -18.042465589181607" fill="#7fff26" stroke="none" /><path d="M 82.18462484594161 111.11811171558189 l -29.26911418909748 18.266091988322692 a55.50117623995295,55.50117623995295 0 0,0 -0.49748092279836537,-0.8125977002483403 l 29.57836307635125 -17.760957171949794" fill="#7aff26" stroke="none" /><line stroke="#e1ed5e" stroke-width="0.3" x1="26.387840678322732" x2="22.057713659400548" y1="142.50000000000003" y2="145.00000000000006" /><path d="M 25.521815274538298 143.00000000000003 a86.0,86.0 0 0,1 -11.493303480769221,-40.785679425670985" fill="none" id="id21" stroke="none" /><text fill="#e1ed5e" style="font-size:6.75px; font-family:Arial;" text-anchor="middle"><textPath startOffset="21.40746469413373" xlink:href="#id21">September</textPath></text><path d="M 81.63589988554817 110.18625677009913 l -29.983776556209264 16.631495419613334 a55.2875122524995,55.2875122524995 0 0,0 -0.4532382067841539,-0.8339072511997032 l 30.264860112608748 -16.11433333493904" fill="#7cff26" stroke="none" /><path d="M 81.1358732173502 109.22738970284198 l -31.763180736361345 15.536963371438876 a56.359537345618506,56.359537345618506 0 0,0 -0.4176530010838669,-0.872734139723332 l 32.02521299540513 -14.98941672965044" fill="#70ff27" stroke="none" /><path d="M 80.16572619554312 106.89939002012753 l -32.803540332799514 11.410774149246208 a55.73151342873947,55.73151342873947 0 0,0 -0.3065620132787995,-0.906296119758824 l 32.994587767650685 -10.845976355013223" fill="#77ff27" stroke="none" /><path d="M 80.05021161711548 106.5578916946017 l -20.48558940395003 6.734020132586484 a42.56400705743972,42.56400705743972 0 0,0 -0.22221509578101592,-0.6960856225572831 l 20.598169215508303 -6.38136547633781" fill="#ffe115" stroke="none" /><path d="M 79.83685265289637 105.86919833188381 l -18.724927162386198 5.450553396958122 a40.50208782591649,40.50208782591649 0 0,0 -0.18858834389267193,-0.6692335019513318 l 18.815733998353444 -5.128311971103794" fill="#ffc412" stroke="none" /><path d="M 79.73907114497094 105.5222062557868 l -20.591196691589662 5.612222223277228 a42.342315232307385,42.342315232307385 0 0,0 -0.18511761644799143,-0.7029217419035617 l 20.684503788842388 -5.2579199770008636" fill="#ffde14" stroke="none" /><path d="M 79.56144815229197 104.8234425847677 l -23.032737378740887 5.435663306490475 a44.665447951382085,44.665447951382085 0 0,0 -0.16970560048484146,-0.7477541885209237 l 23.122653840783393 -5.039474784030525" fill="#fffd17" stroke="none" /><path d="M 79.48165901384964 104.47187691870673 l -26.504499593401686 5.7765323255719245 a48.12668104293276,48.12668104293276 0 0,0 -0.16899864907292436,-0.8087197140135877 l 26.599755953298978 -5.320696160272928" fill="#d4ff1c" stroke="none" /><path d="M 79.0935383218832 101.97986365728391 l -18.501050511897095 1.7520687189463466 a39.58382670064694,39.58382670064694 0 0,0 -0.05825679443225887,-0.6770322578667463 l 18.528400929027097 -1.4342154137039385" fill="#ffb711" stroke="none" /><path d="M 79.03789590574601 101.26102812881392 l -23.117900959152184 1.3907155148903314 a44.15969417761224,44.15969417761224 0 0,0 -0.03902541590572978,-0.7570826428475123 l 23.138367964514487 -0.9936610786660884" fill="#fff617" stroke="none" /><line stroke="#e1ed5e" stroke-width="0.3" x1="15.003131293944662" x2="10.003315487706104" y1="100.72959589197737" y2="100.7725132973878" /><path d="M 14.003168132696942 100.73817937305945 a86.0,86.0 0 0,1 10.791469493833604,-42.45332614584628" fill="none" id="id22" stroke="none" /><text fill="#e1ed5e" style="font-size:6.75px; font-family:Arial;" text-anchor="middle"><textPath startOffset="22.145653131862435" xlink:href="#id22">October</textPath></text><path d="M 79.00077361379809 100.18025310272382 l -13.7808195038483 0.11829176122782359 a34.78132719074691,34.78132719074691 0 0,0 0.0,-0.5970897279032772 l 13.7808195038483 0.11829176122781852" fill="#ff720a" stroke="none" /><path d="M 79.03789590574601 98.7389718711861 l -18.589124872684305 -1.1182755914715086 a39.622730837090764,39.622730837090764 0 0,0 0.04667187660630967,-0.6785988427868048 l 18.567189034912932 1.4372178584126383" fill="#ffb811" stroke="none" /><path d="M 79.06263194458094 98.37931529534042 l -21.468908765706608 -1.6618293173342413 a42.53313075867477,42.53313075867477 0 0,0 0.06259738033684903,-0.7274764456063821 l 21.437217762672013 2.030126810316304" fill="#ffe015" stroke="none" /><path d="M 79.73907114497095 94.47779374421319 l -18.01320102929666 -4.909578041681782 a39.670280337188785,39.670280337188785 0 0,0 0.1847152300568751,-0.655489187311934 l 17.9262673071652 5.21807515289673" fill="#ffb911" stroke="none" /><path d="M 80.05021161711548 93.44210830539832 l -19.105804000797388 -6.280457264549725 a41.11158596353656,41.11158596353656 0 0,0 0.22614226290806683,-0.6685494174409189 l 18.995176316316957 6.607508356464805" fill="#ffcd13" stroke="none" /><path d="M 80.5471966667186 92.08871423366112 l -17.498942563274202 -7.116667600805895 a39.890737110370516,39.890737110370516 0 0,0 0.2634197275999041,-0.6321114516550594 l 17.37419699113782 7.416011561902218" fill="#ffbc11" stroke="none" /><path d="M 80.68587082218212 91.75594674310238 l -18.93890271212061 -8.083891391036296 a41.59202117231915,41.59202117231915 0 0,0 0.2859275540816859,-0.6542581994239158 l 18.797341276021946 8.407811660236078" fill="#ffd413" stroke="none" /><path d="M 80.9802524753101 91.09779779509293 l -15.934305243435071 -7.458059424165922 a38.5933150362674,38.5933150362674 0 0,0 0.2859962058919566,-0.5976220739836974 l 15.803929779583209 7.730494000214707" fill="#ffa90f" stroke="none" /><path d="M 81.29705330413844 90.45014215332179 l -15.4560550184414 -7.891971821168336 a38.3543324838267,38.3543324838267 0 0,0 0.3044456069002982,-0.5838145938892779 l 15.318301342566162 8.1561326581621" fill="#ffa60f" stroke="none" /><path d="M 81.63589988554816 89.8137432299009 l -55.092300343355525 -30.558770310297323 a84.0,84.0 0 0,0 0.710266539914524,-1.254972919603579 l 54.55960043841963 31.500000000000007" fill="#4dd2ff" stroke="none" /><line stroke="#e1ed5e" stroke-width="0.3" x1="26.387840678322718" x2="22.05771365940052" y1="57.49999999999999" y2="54.99999999999999" /><path d="M 25.521815274538284 56.99999999999999 a86.0,86.0 0 0,1 29.574782752854787,-30.34633250058573" fill="none" id="id23" stroke="none" /><text fill="#e1ed5e" style="font-size:6.75px; font-family:Arial;" text-anchor="middle"><textPath startOffset="21.40746469413373" xlink:href="#id23">November</textPath></text><path d="M 82.37810715431573 88.57770195909679 l -17.53863708846393 -11.36833266494051 a41.90078415996864,41.90078415996864 0 0,0 0.3964124667925333,-0.6002189994614529 l 17.340900182750666 11.667731542741024" fill="#ffd814" stroke="none" /><path d="M 82.98947788004972 87.6856937992154 l -50.234229398690296 -36.36570813134663 a83.01566359537347,83.01566359537347 0 0,0 0.8455658469504517,-1.1471724670112329 l 49.602561532156024 37.22268690762672" fill="#4cdcff" stroke="none" /><path d="M 84.58840730492382 85.73525988315684 l -11.352491580425161 -10.507696723983177 a36.469025681238975,36.469025681238975 0 0,0 0.4291955688781098,-0.4557908208354339 l 11.170440177810779 10.701029004763122" fill="#ff8b0c" stroke="none" /><path d="M 86.68645165197937 83.75963576809568 l -10.611166862127558 -12.943898220198037 a37.737424034503036,37.737424034503036 0 0,0 0.5045120345935319,-0.40639918253546936 l 10.38740405717878 13.124145696526904" fill="#ff9d0e" stroke="none" /><path d="M 88.4268655584334 82.4767994020092 l -16.008632938579474 -24.23911064877927 a50.048421878063124,50.048421878063124 0 0,0 0.720969842903614,-0.46732394165959823 l 15.590177463418835 24.510348432142777" fill="#bbff1f" stroke="none" /><path d="M 88.72937992617638 82.28071324371311 l -18.654190870079276 -29.327486426512674 a55.75744951970202,55.75744951970202 0 0,0 0.8120299119201176,-0.5067667225107717 l 18.14799682936946 29.643388945864984" fill="#77ff27" stroke="none" /><line stroke="#e1ed5e" stroke-width="0.3" x1="56.869717070023135" x2="54.33264160355391" y1="26.7553504044142" y2="22.446841604673864" /><path d="M 56.362301976729285 25.89364864446614 a86.0,86.0 0 0,1 42.16139366436587,-11.88097634709845" fill="none" id="id24" stroke="none" /><text fill="#e1ed5e" style="font-size:6.75px; font-family:Arial;" text-anchor="middle"><textPath startOffset="22.145653131862474" xlink:href="#id24">December</textPath></text><path d="M 90.93487009805054 81.0573650232925 l -12.398933163969074 -25.90900158806887 a49.72298568908057,49.72298568908057 0 0,0 0.7731007622614084,-0.36185019288425047 l 11.952343687836144 26.118028012523666" fill="#bfff1e" stroke="none" /><path d="M 92.93061703081487 80.22567764915836 l -10.692632299637506 -29.909195582372796 a52.76306606547736,52.76306606547736 0 0,0 0.8555009259287212,-0.2975876308229714 l 10.177625601663781 30.088341645764352" fill="#9aff23" stroke="none" /></svg>