<?xml version="1.0" encoding="utf-8" ?>
<svg baseProfile="full" height="200mm" version="1.1" viewBox="0,0,200,200" width="200mm" xmlns="http://www.w3.org/2000/svg" xmlns:ev="http://www.w3.org/2001/xml-events" xmlns:xlink="http://www.w3.org/1999/xlink"><defs /><rect fill="#1a1a1a" height="200" width="200" x="0" y="0" /><text alignment-baseline="middle" fill="#e1ed5e" style="dominant-baseline: central; font-size:9.0px; font-family:Arial;" text-anchor="middle" x="100.0" y="100.0">2024</text><line stroke="#e1ed5e" stroke-width="0.3" x1="100.0" x2="100.0" y1="15.0" y2="10.0" /><path d="M 100.0 14.0 a86.0,86.0 0 0,1 42.35913384403234,11.155469271406648" fill="none" id="id61" stroke="none" /><text fill="#e1ed5e" style="font-size:6.75px; font-family:Arial;" text-anchor="middle"><textPath startOffset="22.145653131862478" xlink:href="#id61">January</textPath></text><path d="M 100.36049292484886 79.00309439819443 l 0.31682321037619987 -18.453363664541243 a39.456083210758564,39.456083210758564 0 0,0 0.6771165270511591,0.017440119839161952 l -0.6335530514981004 18.445205827352037" fill="#ffa50f" stroke="none" /><path d="M 100.72087961077811 79.0123766808444 l 0.6237827773028518 -18.160754954461613 a39.17146459340198,39.17146459340198 0 0,0 0.6718358317180871,0.028851521345639612 l -0.9354443696217752 18.147370864690142" fill="#ffa10e" stroke="none" /><path d="M 101.08105385017728 79.02784411241856 l 0.9418616361205159 -18.271864120379185 a39.29612313511242,39.29612313511242 0 0,0 0.6733777071175435,0.04050873071583607 l -1.2553836953705217 18.25300341183866" fill="#ffa20f" stroke="none" /><path d="M 101.80034050326958 79.07731436759882 l 1.595016946188353 -18.536514666444948 a39.6050115570498,39.6050115570498 0 0,0 0.6768693304746086,0.06410022933433494 l -1.9129858400479745 18.506402681605426" fill="#ffa70f" stroke="none" /><path d="M 102.15924093988457 79.11130261209362 l 2.361281282504993 -22.84325442653523 a43.96497163269595,43.96497163269595 0 0,0 0.7500509963397317,0.08404477859653232 l -2.7530681804455215 22.799353887431725" fill="#ffe515" stroke="none" /><path d="M 102.87502721639298 79.19773525538626 l 2.539315381102041 -18.373221139112193 a39.54786719899138,39.54786719899138 0 0,0 0.6717014931734128,0.09871698818521246 l -2.8543419798831358 18.326923077628095" fill="#ffa60f" stroke="none" /><path d="M 103.23170211078529 79.25015418208739 l 2.8495205709765212 -18.295966173802253 a39.51653708762345,39.51653708762345 0 0,0 0.6693772020716837,0.11014576387299656 l -3.1631752761012755 18.244354411433587" fill="#ffa60f" stroke="none" /><path d="M 103.58742460773223 79.30868818359171 l 3.816133291486368 -22.01044272733459 a43.33881067451145,43.33881067451145 0 0,0 0.7319414683550497,0.13338411778745166 l -4.193409493392472 21.941690435615772" fill="#ffdd14" stroke="none" /><path d="M 104.29559338865022 79.4440306129975 l 4.201223922631435 -20.104377329971385 a41.538653078377806,41.538653078377806 0 0,0 0.6967368941535221,0.15185056323411325 l -4.5457232334040905 20.029295308603555" fill="#ffc312" stroke="none" /><path d="M 104.64783097203109 79.52079915486377 l 5.021933021586978 -22.127563501940067 a43.690281571758774,43.690281571758774 0 0,0 0.729976904646714,0.17227256187256135 l -5.401042079973577 22.038094796421277" fill="#ffe215" stroke="none" /><path d="M 105.3480935250658 79.69241777938227 l 5.099175114516933 -19.362398471538757 a41.022588779155285,41.022588779155285 0 0,0 0.6794485409141896,0.1851867211996183 l -5.4308050563658155 19.272011256194997" fill="#ffbc11" stroke="none" /><path d="M 105.69591212413111 79.78721728523813 l 5.516321534884235 -19.57547906980494 a41.33787560411851,41.33787560411851 0 0,0 0.6813662737990646,0.1983357919644349 l -5.851547821064905 19.477899583537987" fill="#ffc011" stroke="none" /><path d="M 106.04205211174951 79.88797359093562 l 4.987454383944353 -16.601613562523237 a38.33459760453877,38.33459760453877 0 0,0 0.6286132271533188,0.19474598464339735 l -5.271708243969302 16.513550990073195" fill="#ff940d" stroke="none" /><path d="M 106.72888874123014 80.10723608172694 l 11.544024401717467 -34.1278569049675 a57.027421727253625,57.027421727253625 0 0,0 0.9246432349183034,0.32163891504514 l -12.128173408680789 33.92465955735377" fill="#70ff27" stroke="none" /><path d="M 107.06938296918511 80.22567764915836 l 7.696996817573583 -21.529869985477198 a43.8643622609792,43.8643622609792 0 0,0 0.7068655259470842,0.2595708122355117 l -8.065451495174791 21.394568324232964" fill="#ffe415" stroke="none" /><path d="M 107.74402155503746 80.48000691201159 l 7.385785298399202 -18.61700370401685 a41.02854591300694,41.02854591300694 0 0,0 0.652442851023423,0.26534282757180394 l -7.704282610613064 18.48747361986575" fill="#ffbc11" stroke="none" /><path d="M 108.07796709384702 80.6158196554323 l 7.830145451547874 -18.789498619350873 a41.355747005673464,41.355747005673464 0 0,0 0.6529578641527065,0.27870888493214724 l -8.15153839087101 18.652315084759326" fill="#ffc011" stroke="none" /><path d="M 108.4095320186766 80.7573450057729 l 8.277177753453046 -18.939802533822057 a41.669489388527005,41.669489388527005 0 0,0 0.6529938317911295,0.2920758352139464 l -8.601084988099807 18.794922947698257" fill="#ffc512" stroke="none" /><path d="M 109.06512990194946 81.05736502329252 l 17.439279372730148 -36.44138660863652 a61.399296070603064,61.399296070603064 0 0,0 0.9468348921423162,0.463144392248317 l -18.06227451413453 36.13664846629098" fill="#3eff2d" stroke="none" /><path d="M 109.3889696526874 81.21577127319529 l 10.385080343513586 -20.77711737655543 a44.227968060516915,44.227968060516915 0 0,0 0.6762093611025364,0.3452773179614106 l -10.740216926329701 20.595782106921188" fill="#ffe915" stroke="none" /><path d="M 110.02825361518725 81.54914285379988 l 8.639069711885679 -15.894915231169136 a39.09093296911116,39.09093296911116 0 0,0 0.5868401813767906,0.3255103562527038 l -8.910654081418569 15.744271959483287" fill="#ff9f0e" stroke="none" /><path d="M 110.34350942703115 81.72400993836675 l 11.193333378695195 -19.777547555665326 a43.725362471107374,43.725362471107374 0 0,0 0.650066071857811,0.3753158215781498 l -11.531191918413404 19.582484836811005" fill="#ffe215" stroke="none" /><line stroke="#e1ed5e" stroke-width="0.3" x1="143.13028292997686" x2="145.6673583964461" y1="26.7553504044142" y2="22.446841604673864" /><path d="M 143.63769802327073 25.89364864446614 a86.0,86.0 0 0,1 29.32050498858742,28.57503671076993" fill="none" id="id62" stroke="none" /><text fill="#e1ed5e" style="font-size:6.75px; font-family:Arial;" text-anchor="middle"><textPath startOffset="20.669276256404974" xlink:href="#id62">February</textPath></text><path d="M 110.65571695917076 81.90426304109057 l 10.19055091624835 -17.305783323016716 a41.08326329060727,41.08326329060727 0 0,0 0.6046424255644354,0.3630704037634883 l -10.48612609837022 17.128298918717306" fill="#ffbd11" stroke="none" /><path d="M 111.27062007382361 82.28071324371311 l 33.81186022147082 -53.157860268860695 a84.0,84.0 0 0,0 1.2100574709719707,0.7843446331844213 l -34.719403324699805 52.56960179397238" fill="#4dd2ff" stroke="none" /><path d="M 111.5731344415666 82.4767994020092 l 7.716841535343814 -11.684281634287514 a35.00257407018281,35.00257407018281 0 0,0 0.4985428490738735,0.3354418781173396 l -7.916280672514689 11.550090082113055" fill="#ff6209" stroke="none" /><path d="M 112.16784306229584 82.88440491214696 l 10.95463828543949 -15.409070635407934 a39.90617776843875,39.90617776843875 0 0,0 0.5549219862750624,0.4017207236998527 l -11.21754128208852 15.218749140335007" fill="#ffab0f" stroke="none" /><path d="M 112.45986205192187 83.09580414077388 l 6.886174863597881 -9.342418730645843 a32.606041185122926,32.606041185122926 0 0,0 0.4477073580563167,0.33596794803364244 l -7.045535210564964 9.222831755348185" fill="#ff3c05" stroke="none" /><path d="M 113.86319453409587 84.22622945171908 l 5.195712076279341 -5.911766579095155 a28.870476990964487,28.870476990964487 0 0,0 0.36945270760777116,0.3303668893013138 l -5.296429810710488 5.821704159910454" fill="#ff0000" stroke="none" /><path d="M 114.13192950727249 84.46653392183569 l 8.664010112816468 -9.523264825164127 a33.87469006093717,33.87469006093717 0 0,0 0.4267730712424146,0.3950147833899777 l -8.82621295537285 9.373132295641772" fill="#ff5007" stroke="none" /><path d="M 114.39649973595853 84.71141617570332 l 11.46063022687096 -12.170792145061565 a37.717482664425305,37.717482664425305 0 0,0 0.4675665953070488,0.44791822151986843 l -11.66786930804332 11.972261793236116" fill="#ff8b0c" stroke="none" /><path d="M 114.91283532996326 85.21462403516908 l 24.392152941836617 -24.18367425489433 a55.34861315402396,55.34861315402396 0 0,0 0.6631638860738202,0.6804645686614224 l -24.80370362906125 23.761386994165168" fill="#84ff25" stroke="none" /><path d="M 115.16444852881244 85.47280134310134 l 9.900546291541646 -9.484499387879174 a34.71045387686489,34.71045387686489 0 0,0 0.40849934209684646,0.433812145199329 l -10.061901467374753 9.31314578273535" fill="#ff5d08" stroke="none" /><path d="M 115.6541949942343 86.00192230759917 l 13.020217973508705 -11.642759198559693 a38.46653708762345,38.46653708762345 0 0,0 0.43593382069909214,0.49601266468784705 l -13.218162858166387 11.417534256060547" fill="#ff960d" stroke="none" /><path d="M 115.8921839302757 86.27271002978787 l 12.969377881741602 -11.202639718808852 a38.13779155284723,38.13779155284723 0 0,0 0.4237025764338949,0.4991205696541572 l -13.15977502168261 10.978352366705144" fill="#ff910d" stroke="none" /><path d="M 116.35404254752997 86.82634096563983 l 15.247507203906387 -12.28231248906411 a40.57911325908805,40.57911325908805 0 0,0 0.4323290405169617,0.5462336196176968 l -15.456102675064908 12.018758925531733" fill="#ffb510" stroke="none" /><line stroke="#e1ed5e" stroke-width="0.3" x1="172.87174338648825" x2="177.1583165268699" y1="56.24261187166439" y2="53.66864786411523" /><path d="M 173.72905801456457 55.72781907015455 a86.0,86.0 0 0,1 12.242430191666344,42.057860355516425" fill="none" id="id63" stroke="none" /><text fill="#e1ed5e" style="font-size:6.75px; font-family:Arial;" text-anchor="middle"><textPath startOffset="22.145653131862474" xlink:href="#id63">March</textPath></text><line stroke="#e1ed5e" stroke-width="0.3" x1="184.99686870605535" x2="189.99668451229388" y1="99.2704041080226" y2="99.22748670261217" /><path d="M 185.99683186730306 99.26182062694052 a86.0,86.0 0 0,1 -10.086455211305974,41.156179273409016" fill="none" id="id64" stroke="none" /><text fill="#e1ed5e" style="font-size:6.75px; font-family:Arial;" text-anchor="middle"><textPath startOffset="21.40746469413373" xlink:href="#id64">April</textPath></text><line stroke="#e1ed5e" stroke-width="0.3" x1="174.33088141563837" x2="178.70328620479359" y1="141.23008692659167" y2="143.65538615756765" /><path d="M 175.20536237346943 141.71514677278685 a86.0,86.0 0 0,1 -30.301960400862466,31.631185727798858" fill="none" id="id65" stroke="none" /><text fill="#e1ed5e" style="font-size:6.75px; font-family:Arial;" text-anchor="middle"><textPath startOffset="22.145653131862474" xlink:href="#id65">May</textPath></text><line stroke="#e1ed5e" stroke-width="0.3" x1="143.1302829299769" x2="145.66735839644613" y1="173.24464959558577" y2="177.55315839532614" /><path d="M 143.63769802327073 174.10635135553383 a86.0,86.0 0 0,1 -40.68552437913181,11.842963189579606" fill="none" id="id66" stroke="none" /><text fill="#e1ed5e" style="font-size:6.75px; font-family:Arial;" text-anchor="middle"><textPath startOffset="21.407464694133747" xlink:href="#id66">June</textPath></text><line stroke="#e1ed5e" stroke-width="0.3" x1="101.45913802915013" x2="101.54496967792366" y1="184.9874750549273" y2="189.98673829345242" /><path d="M 101.47630435890484 185.9873277026323 a86.0,86.0 0 0,1 -42.54439059252881,-10.42667462771756" fill="none" id="id67" stroke="none" /><text fill="#e1ed5e" style="font-size:6.75px; font-family:Arial;" text-anchor="middle"><textPath startOffset="22.145653131862474" xlink:href="#id67">July</textPath></text><line stroke="#e1ed5e" stroke-width="0.3" x1="58.13341422392154" x2="55.67067388415222" y1="173.97424548756322" y2="178.32567169271397" /><path d="M 57.64086615596768 174.84453072859336 a86.0,86.0 0 0,1 -31.369924170532247,-30.572349798747897" fill="none" id="id68" stroke="none" /><text fill="#e1ed5e" style="font-size:6.75px; font-family:Arial;" text-anchor="middle"><textPath startOffset="22.145653131862474" xlink:href="#id68">August</textPath></text><line stroke="#e1ed5e" stroke-width="0.3" x1="26.387840678322732" x2="22.057713659400548" y1="142.50000000000003" y2="145.00000000000006" /><path d="M 25.521815274538298 143.00000000000003 a86.0,86.0 0 0,1 -11.493303480769221,-40.785679425670985" fill="none" id="id69" stroke="none" /><text fill="#e1ed5e" style="font-size:6.75px; font-family:Arial;" text-anchor="middle"><textPath startOffset="21.40746469413373" xlink:href="#id69">September</textPath></text><line stroke="#e1ed5e" stroke-width="0.3" x1="15.003131293944662" x2="10.003315487706104" y1="100.72959589197737" y2="100.7725132973878" /><path d="M 14.003168132696942 100.73817937305945 a86.0,86.0 0 0,1 10.791469493833604,-42.45332614584628" fill="none" id="id70" stroke="none" /><text fill="#e1ed5e" style="font-size:6.75px; font-family:Arial;" text-anchor="middle"><textPath startOffset="22.145653131862435" xlink:href="#id70">October</textPath></text><line stroke="#e1ed5e" stroke-width="0.3" x1="26.387840678322718" x2="22.05771365940052" y1="57.49999999999999" y2="54.99999999999999" /><path d="M 25.521815274538284 56.99999999999999 a86.0,86.0 0 0,1 29.574782752854787,-30.34633250058573" fill="none" id="id71" stroke="none" /><text fill="#e1ed5e" style="font-size:6.75px; font-family:Arial;" text-anchor="middle"><textPath startOffset="21.40746469413373" xlink:href="#id71">November</textPath></text><line stroke="#e1ed5e" stroke-width="0.3" x1="56.869717070023135" x2="54.33264160355391" y1="26.7553504044142" y2="22.446841604673864" /><path d="M 56.362301976729285 25.89364864446614 a86.0,86.0 0 0,1 42.16139366436587,-11.88097634709845" fill="none" id="id72" stroke="none" /><text fill="#e1ed5e" style="font-size:6.75px; font-family:Arial;" text-anchor="middle"><textPath startOffset="22.145653131862474" xlink:href="#id72">December</textPath></text></svg>