<?xml version="1.0" encoding="utf-8" ?>
<svg baseProfile="full" height="200mm" version="1.1" viewBox="0,0,200,200" width="200mm" xmlns="http://www.w3.org/2000/svg" xmlns:ev="http://www.w3.org/2001/xml-events" xmlns:xlink="http://www.w3.org/1999/xlink"><defs /><rect fill="#1a1a1a" height="200" width="200" x="0" y="0" /><text alignment-baseline="middle" fill="#e1ed5e" style="dominant-baseline: central; font-size:9.0px; font-family:Arial;" text-anchor="middle" x="100.0" y="100.0">2024</text><line stroke="#e1ed5e" stroke-width="0.3" x1="100.0" x2="100.0" y1="15.0" y2="10.0" /><path d="M 100.0 14.0 a86.0,86.0 0 0,1 42.35913384403234,11.155469271406648" fill="none" id="id61" stroke="none" /><text fill="#e1ed5e" style="font-size:6.75px; font-family:Arial;" text-anchor="middle"><textPath startOffset="22.145653131862478" xlink:href="#id61">January</textPath></text><path d="M 100.36049292484886 79.00309439819443 l 0.4940646049579209 -28.77678632900853 a49.781027279429836,49.781027279429836 0 0,0 0.8543056877803684,0.022003884086323002 l -0.9879836068090306 28.764064727572162" fill="#ff2b04" stroke="none" /><path d="M 100.72087961077811 79.0123766808444 l 0.9727475177141871 -28.320482617607205 a49.33718358318997,49.33718358318997 0 0,0 0.8461896462463027,0.03633902433977185 l -1.458762924561326 28.299611024841603" fill="#ff2103" stroke="none" /><path d="M 101.08105385017728 79.02784411241856 l 1.4687702224289456 -28.49374993000231 a49.531580240845415,49.531580240845415 0 0,0 0.8487723284510644,0.051060035591994374 l -1.9576869030124724 28.464337916585624" fill="#ff2503" stroke="none" /><path d="M 101.80034050326958 79.07731436759882 l 2.4873222403245263 -28.906454754685512 a50.013271073973954,50.013271073973954 0 0,0 0.8547516583329978,0.08094587072608336 l -2.983173462042537 28.859497128454247" fill="#ff3104" stroke="none" /><path d="M 102.15924093988457 79.11130261209362 l 3.6822602190353932 -35.62252734197793 a56.812337183583196,56.812337183583196 0 0,0 0.9692295599537128,0.10860419381221374 l -4.293225680589902 35.55406738765874" fill="#ffce13" stroke="none" /><path d="M 102.87502721639298 79.19773525538626 l 3.9598924874791885 -28.651809421163243 a49.92415826984517,49.92415826984517 0 0,0 0.8479378037391617,0.12461765680771464 l -4.4511553968260325 28.579610691056647" fill="#ff2f04" stroke="none" /><path d="M 103.23170211078529 79.25015418208739 l 4.443636732129849 -28.53133547018102 a49.8753010567707,49.8753010567707 0 0,0 0.8448460298997288,0.1390190927183814 l -4.932760265082648 28.45085037896697" fill="#ff2e04" stroke="none" /><path d="M 103.58742460773223 79.30868818359171 l 5.951004615117105 -34.323813202059576 a55.83588105185549,55.83588105185549 0 0,0 0.9430022681270477,0.17184642631106967 l -6.539341616795206 34.21659860181714" fill="#ffb911" stroke="none" /><path d="M 104.29559338865022 79.4440306129975 l 6.5515276965029905 -31.35143170749041 a53.028655689358565,53.028655689358565 0 0,0 0.8894612157121745,0.1938539321143398 l -7.0887513288343 31.23434631724235" fill="#ff790b" stroke="none" /><path d="M 104.64783097203109 79.52079915486377 l 7.831368640856044 -34.50645521609987 a56.383976406979606,56.383976406979606 0 0,0 0.9420630650237177,0.22232431824085896 l -8.422563859619647 34.366934754212785" fill="#ffc512" stroke="none" /><path d="M 105.3480935250658 79.69241777938227 l 7.951822518222686 -30.194365307136213 a52.22388793315311,52.22388793315311 0 0,0 0.8649733113644246,0.2357523223778389 l -8.468977230521803 30.05341249061423" fill="#ff6609" stroke="none" /><path d="M 105.69591212413111 79.78721728523813 l 8.602334458757786 -30.526650247628968 a52.71555664782501,52.71555664782501 0 0,0 0.8689029583511895,0.2529249876486331 l -9.12509742949058 30.37448156567782" fill="#ff720a" stroke="none" /><path d="M 106.04205211174951 79.88797359093562 l 7.7776015116543515 -25.889105904496784 a48.03214549029245,48.03214549029245 0 0,0 0.7876342487073758,0.2440111036129517 l -8.220876393233358 25.751778213077188" fill="#ff0000" stroke="none" /><path d="M 106.72888874123014 80.10723608172694 l 18.00213389949158 -53.22011010428126 a77.18235438682723,77.18235438682723 0 0,0 1.2514355318424062,0.4353142396010641 l -18.913075203379 52.90323743211161" fill="#3effb9" stroke="none" /><path d="M 107.06938296918511 80.22567764915836 l 12.002951701427925 -33.57439215561104 a56.65544359793561,56.65544359793561 0 0,0 0.9129912729232991,0.33526304166427146 l -12.57753212600535 33.36339826493804" fill="#ffcb12" stroke="none" /><path d="M 107.74402155503746 80.48000691201159 l 11.51763815354528 -29.031972025040123 a52.23317768493488,52.23317768493488 0 0,0 0.8306207936062419,0.3378062456653441 l -12.01431340834196 28.829978522795482" fill="#ff6609" stroke="none" /><path d="M 108.07796709384702 80.6158196554323 l 12.210588090084812 -29.30096630768929 a52.74342590317031,52.74342590317031 0 0,0 0.8327557164208885,0.35545389662426535 l -12.71177888167613 29.087037761405625" fill="#ff720a" stroke="none" /><path d="M 108.4095320186766 80.7573450057729 l 12.907705063875824 -29.535355208801235 a53.23268616367658,53.23268616367658 0 0,0 0.834198264117068,0.3731262729660086 l -13.412816730848522 29.309425184925374" fill="#ff7e0b" stroke="none" /><path d="M 109.06512990194946 81.05736502329252 l 27.195389705848374 -56.82790493012246 a84.0,84.0 0 0,0 1.2953590029517317,0.6336249996111154 l -28.166908958062173 56.352686180414125" fill="#4dd2ff" stroke="none" /><path d="M 109.3889696526874 81.21577127319529 l 16.194838160000376 -32.40052481200206 a57.22246252150405,57.22246252150405 0 0,0 0.874884524865234,0.44672227219523175 l -16.74864990657919 32.117744588133995" fill="#ffd714" stroke="none" /><line stroke="#e1ed5e" stroke-width="0.3" x1="143.13028292997686" x2="145.6673583964461" y1="26.7553504044142" y2="22.446841604673864" /><path d="M 143.63769802327073 25.89364864446614 a86.0,86.0 0 0,1 29.32050498858742,28.57503671076993" fill="none" id="id62" stroke="none" /><text fill="#e1ed5e" style="font-size:6.75px; font-family:Arial;" text-anchor="middle"><textPath startOffset="20.669276256404974" xlink:href="#id62">February</textPath></text><line stroke="#e1ed5e" stroke-width="0.3" x1="172.87174338648825" x2="177.1583165268699" y1="56.24261187166439" y2="53.66864786411523" /><path d="M 173.72905801456457 55.72781907015455 a86.0,86.0 0 0,1 12.242430191666344,42.057860355516425" fill="none" id="id63" stroke="none" /><text fill="#e1ed5e" style="font-size:6.75px; font-family:Arial;" text-anchor="middle"><textPath startOffset="22.145653131862474" xlink:href="#id63">March</textPath></text><line stroke="#e1ed5e" stroke-width="0.3" x1="184.99686870605535" x2="189.99668451229388" y1="99.2704041080226" y2="99.22748670261217" /><path d="M 185.99683186730306 99.26182062694052 a86.0,86.0 0 0,1 -10.086455211305974,41.156179273409016" fill="none" id="id64" stroke="none" /><text fill="#e1ed5e" style="font-size:6.75px; font-family:Arial;" text-anchor="middle"><textPath startOffset="21.40746469413373" xlink:href="#id64">April</textPath></text><line stroke="#e1ed5e" stroke-width="0.3" x1="174.33088141563837" x2="178.70328620479359" y1="141.23008692659167" y2="143.65538615756765" /><path d="M 175.20536237346943 141.71514677278685 a86.0,86.0 0 0,1 -30.301960400862466,31.631185727798858" fill="none" id="id65" stroke="none" /><text fill="#e1ed5e" style="font-size:6.75px; font-family:Arial;" text-anchor="middle"><textPath startOffset="22.145653131862474" xlink:href="#id65">May</textPath></text><line stroke="#e1ed5e" stroke-width="0.3" x1="143.1302829299769" x2="145.66735839644613" y1="173.24464959558577" y2="177.55315839532614" /><path d="M 143.63769802327073 174.10635135553383 a86.0,86.0 0 0,1 -40.68552437913181,11.842963189579606" fill="none" id="id66" stroke="none" /><text fill="#e1ed5e" style="font-size:6.75px; font-family:Arial;" text-anchor="middle"><textPath startOffset="21.407464694133747" xlink:href="#id66">June</textPath></text><line stroke="#e1ed5e" stroke-width="0.3" x1="101.45913802915013" x2="101.54496967792366" y1="184.9874750549273" y2="189.98673829345242" /><path d="M 101.47630435890484 185.9873277026323 a86.0,86.0 0 0,1 -42.54439059252881,-10.42667462771756" fill="none" id="id67" stroke="none" /><text fill="#e1ed5e" style="font-size:6.75px; font-family:Arial;" text-anchor="middle"><textPath startOffset="22.145653131862474" xlink:href="#id67">July</textPath></text><line stroke="#e1ed5e" stroke-width="0.3" x1="58.13341422392154" x2="55.67067388415222" y1="173.97424548756322" y2="178.32567169271397" /><path d="M 57.64086615596768 174.84453072859336 a86.0,86.0 0 0,1 -31.369924170532247,-30.572349798747897" fill="none" id="id68" stroke="none" /><text fill="#e1ed5e" style="font-size:6.75px; font-family:Arial;" text-anchor="middle"><textPath startOffset="22.145653131862474" xlink:href="#id68">August</textPath></text><line stroke="#e1ed5e" stroke-width="0.3" x1="26.387840678322732" x2="22.057713659400548" y1="142.50000000000003" y2="145.00000000000006" /><path d="M 25.521815274538298 143.00000000000003 a86.0,86.0 0 0,1 -11.493303480769221,-40.785679425670985" fill="none" id="id69" stroke="none" /><text fill="#e1ed5e" style="font-size:6.75px; font-family:Arial;" text-anchor="middle"><textPath startOffset="21.40746469413373" xlink:href="#id69">September</textPath></text><line stroke="#e1ed5e" stroke-width="0.3" x1="15.003131293944662" x2="10.003315487706104" y1="100.72959589197737" y2="100.7725132973878" /><path d="M 14.003168132696942 100.73817937305945 a86.0,86.0 0 0,1 10.791469493833604,-42.45332614584628" fill="none" id="id70" stroke="none" /><text fill="#e1ed5e" style="font-size:6.75px; font-family:Arial;" text-anchor="middle"><textPath startOffset="22.145653131862435" xlink:href="#id70">October</textPath></text><line stroke="#e1ed5e" stroke-width="0.3" x1="26.387840678322718" x2="22.05771365940052" y1="57.49999999999999" y2="54.99999999999999" /><path d="M 25.521815274538284 56.99999999999999 a86.0,86.0 0 0,1 29.574782752854787,-30.34633250058573" fill="none" id="id71" stroke="none" /><text fill="#e1ed5e" style="font-size:6.75px; font-family:Arial;" text-anchor="middle"><textPath startOffset="21.40746469413373" xlink:href="#id71">November</textPath></text><line stroke="#e1ed5e" stroke-width="0.3" x1="56.869717070023135" x2="54.33264160355391" y1="26.7553504044142" y2="22.446841604673864" /><path d="M 56.362301976729285 25.89364864446614 a86.0,86.0 0 0,1 42.16139366436587,-11.88097634709845" fill="none" id="id72" stroke="none" /><text fill="#e1ed5e" style="font-size:6.75px; font-family:Arial;" text-anchor="middle"><textPath startOffset="22.145653131862474" xlink:href="#id72">December</textPath></text></svg>