<?xml version="1.0" encoding="utf-8" ?>
<svg baseProfile="full" height="200mm" version="1.1" viewBox="0,0,200,200" width="200mm" xmlns="http://www.w3.org/2000/svg" xmlns:ev="http://www.w3.org/2001/xml-events" xmlns:xlink="http://www.w3.org/1999/xlink"><defs /><rect fill="#1a1a1a" height="200" width="200" x="0" y="0" /><text alignment-baseline="middle" fill="#e1ed5e" style="dominant-baseline: central; font-size:9.0px; font-family:Arial;" text-anchor="middle" x="100.0" y="100.0">2023</text><line stroke="#e1ed5e" stroke-width="0.3" x1="100.0" x2="100.0" y1="15.0" y2="10.0" /><path d="M 100.0 14.0 a86.0,86.0 0 0,1 42.46469731375804,11.215312516191453" fill="none" id="id49" stroke="none" /><text fill="#e1ed5e" style="font-size:6.75px; font-family:Arial;" text-anchor="middle"><textPath startOffset="22.20632615414155" xlink:href="#id49">January</textPath></text><path d="M 100.0 79.0 l 0.0 -52.92784842979495 a73.92784842979495,73.92784842979495 0 0,0 1.2725463848566243,0.010953208491692835 l -0.9110659055840961 52.920006597911815" fill="#3bff9c" stroke="none" /><path d="M 100.72285384407766 79.0124445844662 l 0.9611701331770126 -27.906902064757215 a48.92344948026411,48.92344948026411 0 0,0 0.8413882043302274,0.03623194598556233 l -1.4413991698965716 27.886222392247458" fill="#ffa30f" stroke="none" /><path d="M 101.08401301168833 79.027996857942 l 1.4544887532592359 -28.13946177263319 a49.17702692597007,49.17702692597007 0 0,0 0.8449970304822036,0.05097252846548206 l -1.9386478325810514 28.110255974787407" fill="#ffa70f" stroke="none" /><path d="M 101.80526077348638 79.07773832637324 l 2.4380990682737496 -28.256608375828073 a49.36159805038557,49.36159805038557 0 0,0 0.8459047059526169,0.08032884453488416 l -2.9241289013166107 28.21045398677801" fill="#ffab0f" stroke="none" /><path d="M 102.16513564639614 79.11191278185805 l 3.473958511221296 -33.51492018312124 a54.69448415718327,54.69448415718327 0 0,0 0.9356228496961929,0.10512812873438246 l -4.050348064427214 33.45015610091625" fill="#f4ff19" stroke="none" /><path d="M 102.52436894288641 79.15227682838746 l 7.132932715918217 -58.90795284985922 a80.3382308304777,80.3382308304777 0 0,0 1.371432023355387,0.1780512369941468 l -8.14587946778145 58.77644328970094" fill="#46fffb" stroke="none" /><path d="M 103.2404852339499 79.25152402106235 l 4.335947056539463 -27.762599380493032 a49.09915232242541,49.09915232242541 0 0,0 0.8339158874641791,0.13760326669863535 l -4.813192150142517 27.683849850854774" fill="#ffa60f" stroke="none" /><path d="M 103.59715602781102 79.31037775812273 l 4.510326382449707 -25.941868609253323 a47.33103854799474,47.33103854799474 0 0,0 0.8014832490920761,0.14646594081957512 l -4.956204752644684 25.86038718708301" fill="#ff840c" stroke="none" /><path d="M 104.307194497241 79.44645832069477 l 5.924521617576432 -28.271280081454957 a49.88538097102412,49.88538097102412 0 0,0 0.8389231070614435,0.18335609777657982 l -6.410287448791403 28.16511048558251" fill="#ffb410" stroke="none" /><path d="M 104.66035177308747 79.52364482259891 l 6.821920045235397 -29.973715427393373 a51.74023763125366,51.74023763125366 0 0,0 0.8667138109335861,0.20512315664784414 l -7.336857543131507 29.851846358604657" fill="#ffd614" stroke="none" /><path d="M 105.01212808612495 79.60689891045804 l 15.036384258374856 -61.17930326862588 a84.0,84.0 0 0,0 1.4011644452598997,0.3571880153245286 l -16.08725759231978 60.91141225713248" fill="#4dd2ff" stroke="none" /><path d="M 105.71112130821622 79.79150937346287 l 7.7430139965722455 -27.398231857860587 a49.471343043281266,49.471343043281266 0 0,0 0.8174780942085086,0.23864427242478403 l -8.213482308504181 27.2608892565171" fill="#ffad10" stroke="none" /><path d="M 106.0581310904928 79.89281104454417 l 9.866332196526914 -32.746766751910435 a55.200807647133864,55.200807647133864 0 0,0 0.9074345827606024,0.2819443420289288 l -10.428552151998234 32.572082274998984" fill="#ebff1a" stroke="none" /><path d="M 106.74666289553966 80.11325718540242 l 11.976679224895955 -35.3029554323669 a58.279210124622246,58.279210124622246 0 0,0 0.947225866881497,0.33046850568750785 l -12.582587095840726 35.09156607350718" fill="#b8ff1f" stroke="none" /><path d="M 107.08798089147638 80.2323363322302 l 13.218932985304543 -36.86627056437502 a60.16455150510058,60.16455150510058 0 0,0 0.9718513920236311,0.3579410694735874 l -13.851566703100751 36.633266227095106" fill="#99ff23" stroke="none" /><path d="M 107.4271985657038 80.35727306442388 l 12.53041422934548 -33.139211631319455 a56.42906473934025,56.42906473934025 0 0,0 0.9055973714514923,0.351357710823877 l -13.098994765796638 32.918611216605036" fill="#d6ff1c" stroke="none" /><path d="M 107.76421540070413 80.48803036053334 l 14.766173087573511 -37.10833691575773 a60.938309131779334,60.938309131779334 0 0,0 0.9712873822102767,0.3962125107773451 l -15.402744339372175 36.84866351879681" fill="#8dff24" stroke="none" /><path d="M 108.09893153111575 80.62456947434976 l 12.266981070714182 -29.346838972763305 a52.80747997378226,52.80747997378226 0 0,0 0.8356563478785953,0.3577844370364386 l -12.770321176383094 29.131335007764076" fill="#ffe915" stroke="none" /><path d="M 108.76106565485865 80.91482961587045 l 17.009556150542984 -37.053743240869395 a61.77137339603302,61.77137339603302 0 0,0 0.962520918720493,0.4519164773357331 l -17.644855280563075 36.75546178089366" fill="#81ff25" stroke="none" /><path d="M 109.08828744355905 81.06846463323043 l 18.62881640511439 -38.80512129536812 a64.04497925895296,64.04497925895296 0 0,0 0.9897350463452943,0.48565868886952246 l -19.294022718470114 38.47870744636376" fill="#5eff29" stroke="none" /><path d="M 109.73455568895987 81.39251694778311 l 15.043690474658979 -28.75582866791567 a53.45320177541603,53.45320177541603 0 0,0 0.8116103888101464,0.4335341618546455 l -15.536445909997436 28.49261577955927" fill="#fff517" stroke="none" /><path d="M 110.05341064243156 81.56283822128135 l 14.734435581261753 -27.021792125276832 a51.77792783083399,51.77792783083399 0 0,0 0.7788285771203387,0.43341725994765945 l -15.197388247454127 26.76415946776899" fill="#ffd714" stroke="none" /><path d="M 110.36928655335952 81.73862282372117 l 15.759671633691854 -27.754398183152517 a52.91667069903707,52.91667069903707 0 0,0 0.7882146429388103,0.45658479692501425 l -16.23508300909599 27.479009228837455" fill="#ffeb16" stroke="none" /><line stroke="#e1ed5e" stroke-width="0.3" x1="143.23703022742887" x2="145.7803849466894" y1="26.81831364943548" y2="22.513508569990506" /><path d="M 143.74570117128098 25.957352633546492 a86.0,86.0 0 0,1 28.547481713284135,27.462654790039103" fill="none" id="id50" stroke="none" /><text fill="#e1ed5e" style="font-size:6.75px; font-family:Arial;" text-anchor="middle"><textPath startOffset="19.985693538727396" xlink:href="#id50">February</textPath></text><path d="M 111.2981086023043 82.29822771554956 l 16.915181076020264 -26.502549594618557 a52.44055479551483,52.44055479551483 0 0,0 0.7567246328193947,0.4921947508508188 l -17.368872734623938 26.20745591960821" fill="#ffe315" stroke="none" /><path d="M 111.60114157652 82.49532879139004 l 19.9511852840065 -30.10384248093561 a57.11497094493835,57.11497094493835 0 0,0 0.8148274844862042,0.5501751548365998 l -20.466417462899248 29.75595541380034" fill="#cbff1d" stroke="none" /><path d="M 111.90073688211348 82.69761687909136 l 35.351827137333615 -51.397729671143985 a83.38171444659014,83.38171444659014 0 0,0 1.1755585321792081,0.823553876788196 l -36.23131680909648 50.78159095159185" fill="#4cdaff" stroke="none" /><path d="M 112.48926042617603 83.11751280151076 l 19.39407265860686 -26.21613868338162 a53.61005951778715,53.61005951778715 0 0,0 0.7371481372858595,0.5552046943201361 l -19.8424669496511 25.878417399555637" fill="#fff817" stroke="none" /><path d="M 112.77801427241765 83.33499621200491 l 13.598621724955292 -17.735234734169286 a43.34862554821908,43.34862554821908 0 0,0 0.5882355742774587,0.45912719616162806 l -13.90188985439218 17.49852914878443" fill="#ff3605" stroke="none" /><path d="M 113.34407831869373 83.78471172551755 l 12.54341131359982 -15.242343872524298 a40.739964896382745,40.739964896382745 0 0,0 0.5376559150277433,0.4502713666793744 l -12.80392476558668 15.024171348451105" fill="#ff0000" stroke="none" /><path d="M 113.6212207817346 84.01681056812373 l 21.612386506777465 -25.360052020885096 a54.32007636576385,54.32007636576385 0 0,0 0.7064357006414976,0.6126140782633163 l -22.045716006065728 24.98427294920211" fill="#faff18" stroke="none" /><line stroke="#e1ed5e" stroke-width="0.3" x1="172.23445277983987" x2="176.4835382374775" y1="55.19839476539836" y2="52.563006222186495" /><path d="M 173.08426987136738 54.67131705675599 a86.0,86.0 0 0,1 12.851231095245387,41.99856678651699" fill="none" id="id51" stroke="none" /><text fill="#e1ed5e" style="font-size:6.75px; font-family:Arial;" text-anchor="middle"><textPath startOffset="22.20632615414155" xlink:href="#id51">March</textPath></text><line stroke="#e1ed5e" stroke-width="0.3" x1="184.98032266829074" x2="189.97916517819016" y1="98.17113171792111" y2="98.06355123074" /><path d="M 185.9800911702706 98.14961562048488 a86.0,86.0 0 0,1 -9.607161424134198,41.387399972396054" fill="none" id="id52" stroke="none" /><text fill="#e1ed5e" style="font-size:6.75px; font-family:Arial;" text-anchor="middle"><textPath startOffset="21.466115282336823" xlink:href="#id52">April</textPath></text><line stroke="#e1ed5e" stroke-width="0.3" x1="174.80103733775053" x2="179.2010983576182" y1="140.37084112569926" y2="142.7455964860345" /><path d="M 175.68104954172406 140.8457921977663 a86.0,86.0 0 0,1 -30.038265399797805,32.042727171017184" fill="none" id="id53" stroke="none" /><text fill="#e1ed5e" style="font-size:6.75px; font-family:Arial;" text-anchor="middle"><textPath startOffset="22.206326154141568" xlink:href="#id53">May</textPath></text><line stroke="#e1ed5e" stroke-width="0.3" x1="143.8653032363475" x2="146.44561519142675" y1="172.8068346515853" y2="177.08958963109032" /><path d="M 144.38136562736335 173.6633856474863 a86.0,86.0 0 0,1 -40.68145358897372,12.25698825130547" fill="none" id="id54" stroke="none" /><text fill="#e1ed5e" style="font-size:6.75px; font-family:Arial;" text-anchor="middle"><textPath startOffset="21.466115282336833" xlink:href="#id54">June</textPath></text><line stroke="#e1ed5e" stroke-width="0.3" x1="102.19456741930631" x2="102.32365962044197" y1="184.97166512339345" y2="189.96999836594603" /><path d="M 102.22038585953345 185.97133177190398 a86.0,86.0 0 0,1 -42.740103519485714,-10.115201625700543" fill="none" id="id55" stroke="none" /><text fill="#e1ed5e" style="font-size:6.75px; font-family:Arial;" text-anchor="middle"><textPath startOffset="22.20632615414155" xlink:href="#id55">July</textPath></text><line stroke="#e1ed5e" stroke-width="0.3" x1="58.666819895761336" x2="56.23545636021788" y1="174.27360380694188" y2="178.64263932499728" /><path d="M 58.180547188652646 175.14741091055294 a86.0,86.0 0 0,1 -31.652253787137756,-30.449443065178592" fill="none" id="id56" stroke="none" /><text fill="#e1ed5e" style="font-size:6.75px; font-family:Arial;" text-anchor="middle"><textPath startOffset="22.20632615414155" xlink:href="#id56">August</textPath></text><line stroke="#e1ed5e" stroke-width="0.3" x1="26.63291911575756" x2="22.317208475507996" y1="142.92168965132927" y2="145.44649492493687" /><path d="M 25.769776987707644 143.4266507060508 a86.0,86.0 0 0,1 -11.730757126820373,-40.83630448921669" fill="none" id="id57" stroke="none" /><text fill="#e1ed5e" style="font-size:6.75px; font-family:Arial;" text-anchor="middle"><textPath startOffset="21.46611528233685" xlink:href="#id57">September</textPath></text><line stroke="#e1ed5e" stroke-width="0.3" x1="15.007084014347285" x2="10.007500721073583" y1="101.09737516637583" y2="101.16192664675087" /><path d="M 14.007167355692545 101.11028546245083 a86.0,86.0 0 0,1 10.666146001902534,-42.60595125391555" fill="none" id="id58" stroke="none" /><text fill="#e1ed5e" style="font-size:6.75px; font-family:Arial;" text-anchor="middle"><textPath startOffset="22.20632615414155" xlink:href="#id58">October</textPath></text><line stroke="#e1ed5e" stroke-width="0.3" x1="26.266209847984243" x2="21.928928074336255" y1="57.711370442889674" y2="55.22380399835377" /><path d="M 25.398753493254645 57.213857153982495 a86.0,86.0 0 0,1 29.58750427330803,-30.492523968695096" fill="none" id="id59" stroke="none" /><text fill="#e1ed5e" style="font-size:6.75px; font-family:Arial;" text-anchor="middle"><textPath startOffset="21.46611528233685" xlink:href="#id59">November</textPath></text><line stroke="#e1ed5e" stroke-width="0.3" x1="56.762969772571076" x2="54.21961505331055" y1="26.818313649435495" y2="22.513508569990535" /><path d="M 56.25429882871897 25.957352633546506 a86.0,86.0 0 0,1 42.265352541879196,-11.944610805530505" fill="none" id="id60" stroke="none" /><text fill="#e1ed5e" style="font-size:6.75px; font-family:Arial;" text-anchor="middle"><textPath startOffset="22.20632615414155" xlink:href="#id60">December</textPath></text></svg>