<?xml version="1.0" encoding="utf-8" ?>
<svg baseProfile="full" height="200mm" version="1.1" viewBox="0,0,200,200" width="200mm" xmlns="http://www.w3.org/2000/svg" xmlns:ev="http://www.w3.org/2001/xml-events" xmlns:xlink="http://www.w3.org/1999/xlink"><defs /><rect fill="#1a1a1a" height="200" width="200" x="0" y="0" /><text alignment-baseline="middle" fill="#e1ed5e" style="dominant-baseline: central; font-size:9.0px; font-family:Arial;" text-anchor="middle" x="100.0" y="100.0">2024</text><line stroke="#e1ed5e" stroke-width="0.3" x1="100.0" x2="100.0" y1="15.0" y2="10.0" /><path d="M 100.0 14.0 a86.0,86.0 0 0,1 42.35913384403234,11.155469271406648" fill="none" id="id61" stroke="none" /><text fill="#e1ed5e" style="font-size:6.75px; font-family:Arial;" text-anchor="middle"><textPath startOffset="22.145653131862478" xlink:href="#id61">January</textPath></text><path d="M 100.36049292484886 79.00309439819443 l 0.31682321037619987 -18.453363664541243 a39.456083210758564,39.456083210758564 0 0,0 0.6771165270511591,0.017440119839161952 l -0.6335530514981004 18.445205827352037" fill="#ffa50f" stroke="none" /><path d="M 100.72087961077811 79.0123766808444 l 0.6237827773028518 -18.160754954461613 a39.17146459340198,39.17146459340198 0 0,0 0.6718358317180871,0.028851521345639612 l -0.9354443696217752 18.147370864690142" fill="#ffa10e" stroke="none" /><path d="M 101.08105385017728 79.02784411241856 l 0.9418616361205159 -18.271864120379185 a39.29612313511242,39.29612313511242 0 0,0 0.6733777071175435,0.04050873071583607 l -1.2553836953705217 18.25300341183866" fill="#ffa20f" stroke="none" /><path d="M 101.80034050326958 79.07731436759882 l 1.595016946188353 -18.536514666444948 a39.6050115570498,39.6050115570498 0 0,0 0.6768693304746086,0.06410022933433494 l -1.9129858400479745 18.506402681605426" fill="#ffa70f" stroke="none" /><path d="M 102.15924093988457 79.11130261209362 l 2.361281282504993 -22.84325442653523 a43.96497163269595,43.96497163269595 0 0,0 0.7500509963397317,0.08404477859653232 l -2.7530681804455215 22.799353887431725" fill="#ffe515" stroke="none" /><path d="M 102.87502721639298 79.19773525538626 l 2.539315381102041 -18.373221139112193 a39.54786719899138,39.54786719899138 0 0,0 0.6717014931734128,0.09871698818521246 l -2.8543419798831358 18.326923077628095" fill="#ffa60f" stroke="none" /><path d="M 103.23170211078529 79.25015418208739 l 2.8495205709765212 -18.295966173802253 a39.51653708762345,39.51653708762345 0 0,0 0.6693772020716837,0.11014576387299656 l -3.1631752761012755 18.244354411433587" fill="#ffa60f" stroke="none" /><path d="M 103.58742460773223 79.30868818359171 l 3.816133291486368 -22.01044272733459 a43.33881067451145,43.33881067451145 0 0,0 0.7319414683550497,0.13338411778745166 l -4.193409493392472 21.941690435615772" fill="#ffdd14" stroke="none" /><path d="M 104.29559338865022 79.4440306129975 l 4.201223922631435 -20.104377329971385 a41.538653078377806,41.538653078377806 0 0,0 0.6967368941535221,0.15185056323411325 l -4.5457232334040905 20.029295308603555" fill="#ffc312" stroke="none" /><path d="M 104.64783097203109 79.52079915486377 l 5.021933021586978 -22.127563501940067 a43.690281571758774,43.690281571758774 0 0,0 0.729976904646714,0.17227256187256135 l -5.401042079973577 22.038094796421277" fill="#ffe215" stroke="none" /><path d="M 105.3480935250658 79.69241777938227 l 5.099175114516933 -19.362398471538757 a41.022588779155285,41.022588779155285 0 0,0 0.6794485409141896,0.1851867211996183 l -5.4308050563658155 19.272011256194997" fill="#ffbc11" stroke="none" /><path d="M 105.69591212413111 79.78721728523813 l 5.516321534884235 -19.57547906980494 a41.33787560411851,41.33787560411851 0 0,0 0.6813662737990646,0.1983357919644349 l -5.851547821064905 19.477899583537987" fill="#ffc011" stroke="none" /><path d="M 106.04205211174951 79.88797359093562 l 4.987454383944353 -16.601613562523237 a38.33459760453877,38.33459760453877 0 0,0 0.6286132271533188,0.19474598464339735 l -5.271708243969302 16.513550990073195" fill="#ff940d" stroke="none" /><path d="M 106.72888874123014 80.10723608172694 l 11.544024401717467 -34.1278569049675 a57.027421727253625,57.027421727253625 0 0,0 0.9246432349183034,0.32163891504514 l -12.128173408680789 33.92465955735377" fill="#70ff27" stroke="none" /><path d="M 107.06938296918511 80.22567764915836 l 7.696996817573583 -21.529869985477198 a43.8643622609792,43.8643622609792 0 0,0 0.7068655259470842,0.2595708122355117 l -8.065451495174791 21.394568324232964" fill="#ffe415" stroke="none" /><path d="M 107.74402155503746 80.48000691201159 l 7.385785298399202 -18.61700370401685 a41.02854591300694,41.02854591300694 0 0,0 0.652442851023423,0.26534282757180394 l -7.704282610613064 18.48747361986575" fill="#ffbc11" stroke="none" /><path d="M 108.07796709384702 80.6158196554323 l 7.830145451547874 -18.789498619350873 a41.355747005673464,41.355747005673464 0 0,0 0.6529578641527065,0.27870888493214724 l -8.15153839087101 18.652315084759326" fill="#ffc011" stroke="none" /><path d="M 108.4095320186766 80.7573450057729 l 8.277177753453046 -18.939802533822057 a41.669489388527005,41.669489388527005 0 0,0 0.6529938317911295,0.2920758352139464 l -8.601084988099807 18.794922947698257" fill="#ffc512" stroke="none" /><path d="M 109.06512990194946 81.05736502329252 l 17.439279372730148 -36.44138660863652 a61.399296070603064,61.399296070603064 0 0,0 0.9468348921423162,0.463144392248317 l -18.06227451413453 36.13664846629098" fill="#3eff2d" stroke="none" /><path d="M 109.3889696526874 81.21577127319529 l 10.385080343513586 -20.77711737655543 a44.227968060516915,44.227968060516915 0 0,0 0.6762093611025364,0.3452773179614106 l -10.740216926329701 20.595782106921188" fill="#ffe915" stroke="none" /><path d="M 110.02825361518725 81.54914285379988 l 8.639069711885679 -15.894915231169136 a39.09093296911116,39.09093296911116 0 0,0 0.5868401813767906,0.3255103562527038 l -8.910654081418569 15.744271959483287" fill="#ff9f0e" stroke="none" /><path d="M 110.34350942703115 81.72400993836675 l 11.193333378695195 -19.777547555665326 a43.725362471107374,43.725362471107374 0 0,0 0.650066071857811,0.3753158215781498 l -11.531191918413404 19.582484836811005" fill="#ffe215" stroke="none" /><line stroke="#e1ed5e" stroke-width="0.3" x1="143.13028292997686" x2="145.6673583964461" y1="26.7553504044142" y2="22.446841604673864" /><path d="M 143.63769802327073 25.89364864446614 a86.0,86.0 0 0,1 29.32050498858742,28.57503671076993" fill="none" id="id62" stroke="none" /><text fill="#e1ed5e" style="font-size:6.75px; font-family:Arial;" text-anchor="middle"><textPath startOffset="20.669276256404974" xlink:href="#id62">February</textPath></text><path d="M 110.65571695917076 81.90426304109057 l 10.19055091624835 -17.305783323016716 a41.08326329060727,41.08326329060727 0 0,0 0.6046424255644354,0.3630704037634883 l -10.48612609837022 17.128298918717306" fill="#ffbd11" stroke="none" /><path d="M 111.27062007382361 82.28071324371311 l 33.81186022147082 -53.157860268860695 a84.0,84.0 0 0,0 1.2100574709719707,0.7843446331844213 l -34.719403324699805 52.56960179397238" fill="#4dd2ff" stroke="none" /><path d="M 111.5731344415666 82.4767994020092 l 7.716841535343814 -11.684281634287514 a35.00257407018281,35.00257407018281 0 0,0 0.4985428490738735,0.3354418781173396 l -7.916280672514689 11.550090082113055" fill="#ff6209" stroke="none" /><path d="M 112.16784306229584 82.88440491214696 l 10.95463828543949 -15.409070635407934 a39.90617776843875,39.90617776843875 0 0,0 0.5549219862750624,0.4017207236998527 l -11.21754128208852 15.218749140335007" fill="#ffab0f" stroke="none" /><path d="M 112.45986205192187 83.09580414077388 l 6.886174863597881 -9.342418730645843 a32.606041185122926,32.606041185122926 0 0,0 0.4477073580563167,0.33596794803364244 l -7.045535210564964 9.222831755348185" fill="#ff3c05" stroke="none" /><path d="M 113.86319453409587 84.22622945171908 l 5.195712076279341 -5.911766579095155 a28.870476990964487,28.870476990964487 0 0,0 0.36945270760777116,0.3303668893013138 l -5.296429810710488 5.821704159910454" fill="#ff0000" stroke="none" /><path d="M 114.13192950727249 84.46653392183569 l 8.664010112816468 -9.523264825164127 a33.87469006093717,33.87469006093717 0 0,0 0.4267730712424146,0.3950147833899777 l -8.82621295537285 9.373132295641772" fill="#ff5007" stroke="none" /><path d="M 114.39649973595853 84.71141617570332 l 11.46063022687096 -12.170792145061565 a37.717482664425305,37.717482664425305 0 0,0 0.4675665953070488,0.44791822151986843 l -11.66786930804332 11.972261793236116" fill="#ff8b0c" stroke="none" /><path d="M 114.91283532996326 85.21462403516908 l 24.392152941836617 -24.18367425489433 a55.34861315402396,55.34861315402396 0 0,0 0.6631638860738202,0.6804645686614224 l -24.80370362906125 23.761386994165168" fill="#84ff25" stroke="none" /><path d="M 115.16444852881244 85.47280134310134 l 9.900546291541646 -9.484499387879174 a34.71045387686489,34.71045387686489 0 0,0 0.40849934209684646,0.433812145199329 l -10.061901467374753 9.31314578273535" fill="#ff5d08" stroke="none" /><path d="M 115.6541949942343 86.00192230759917 l 13.020217973508705 -11.642759198559693 a38.46653708762345,38.46653708762345 0 0,0 0.43593382069909214,0.49601266468784705 l -13.218162858166387 11.417534256060547" fill="#ff960d" stroke="none" /><path d="M 115.8921839302757 86.27271002978787 l 12.969377881741602 -11.202639718808852 a38.13779155284723,38.13779155284723 0 0,0 0.4237025764338949,0.4991205696541572 l -13.15977502168261 10.978352366705144" fill="#ff910d" stroke="none" /><path d="M 116.35404254752997 86.82634096563983 l 15.247507203906387 -12.28231248906411 a40.57911325908805,40.57911325908805 0 0,0 0.4323290405169617,0.5462336196176968 l -15.456102675064908 12.018758925531733" fill="#ffb510" stroke="none" /><path d="M 116.57777611688842 87.10902102172516 l 15.012832658070986 -11.674069479222531 a40.0175982349233,40.0175982349233 0 0,0 0.4170367735591785,0.5459145236492439 l -15.21102140898447 11.414634042332406" fill="#ffad10" stroke="none" /><path d="M 116.7966241395341 87.39550010848427 l 26.289063858650934 -19.727803623020577 a53.867934440008405,53.867934440008405 0 0,0 0.5486782088527941,0.7443873670099198 l -26.62384408708755 19.273609946741782" fill="#96ff23" stroke="none" /><path d="M 117.01052211995028 87.68569379921539 l 11.221797477533917 -8.123715973390055 a34.853645723891574,34.853645723891574 0 0,0 0.3466857310907976,0.48765689742277424 l -11.359598307154675 7.929881849257778" fill="#ff5f08" stroke="none" /><path d="M 117.62189284568427 88.57770195909679 l 14.50705017668036 -9.403294655316376 a38.288043706661064,38.288043706661064 0 0,0 0.3527647180711238,0.5546047294700776 l -14.666332586377374 9.152876251167626" fill="#ff940d" stroke="none" /><path d="M 117.81537515405839 88.88188828441811 l 16.3226496145163 -10.186540577404067 a40.24043916789242,40.24043916789242 0 0,0 0.3606923702752831,0.5891638797606965 l -16.495109949246984 9.904839581518814" fill="#ffb010" stroke="none" /><line stroke="#e1ed5e" stroke-width="0.3" x1="172.87174338648825" x2="177.1583165268699" y1="56.24261187166439" y2="53.66864786411523" /><path d="M 173.72905801456457 55.72781907015455 a86.0,86.0 0 0,1 12.242430191666344,42.057860355516425" fill="none" id="id63" stroke="none" /><text fill="#e1ed5e" style="font-size:6.75px; font-family:Arial;" text-anchor="middle"><textPath startOffset="22.145653131862474" xlink:href="#id63">March</textPath></text><path d="M 118.18653347947321 89.5 l 41.74418963291146 -24.101019121664223 a69.20203824332843,69.20203824332843 0 0,0 0.5851415745014228,1.0338890949612485 l -42.15176457243425 23.380873256603856" fill="#38ff84" stroke="none" /><path d="M 118.53625476483649 90.13048839642627 l 14.79180666267731 -7.87580389605206 a37.75785879386426,37.75785879386426 0 0,0 0.29971097112955253,0.5747353055137414 l -14.924825702781806 7.62072234743382" fill="#ff8c0c" stroke="none" /><path d="M 119.31412917781788 91.75594674310238 l 24.69258046861492 -10.539794290455825 a47.84791973103593,47.84791973103593 0 0,0 0.31596523139940713,0.7582015322548569 l -24.86987154455081 10.114360248759692" fill="#e4ff1b" stroke="none" /><path d="M 119.4528033332814 92.08871423366111 l 31.977154964543043 -13.004830542145221 a55.520487497373395,55.520487497373395 0 0,0 0.35147462735369245,0.8859456611512757 l -32.19568826686286 12.453983863780381" fill="#82ff25" stroke="none" /><path d="M 119.83427380445688 93.10060997987247 l 21.642030951480034 -7.528221795969156 a43.91400504307627,43.91400504307627 0 0,0 0.2415575133152378,0.7141218661592271 l -21.768073886367638 7.155598255335767" fill="#ffe515" stroke="none" /><path d="M 119.94978838288452 93.4421083053983 l 22.950221464424672 -7.544193644677577 a45.158384114309726,45.158384114309726 0 0,0 0.235759632257721,0.7385136901577575 l -23.076345812459653 7.149110920828433" fill="#fff617" stroke="none" /><path d="M 120.16314734710363 94.1308016681162 l 34.00915817507898 -9.899570289983453 a56.420676612733764,56.420676612733764 0 0,0 0.26270946844597476,0.9322632244118667 l -34.17408613559954 9.314299141668574" fill="#78ff26" stroke="none" /><path d="M 120.26092885502905 94.47779374421319 l 19.348356865099344 -5.2734807019040835 a41.054139525110315,41.054139525110315 0 0,0 0.17948580309121057,0.6815368292691768 l -19.436032148995288 4.940563368262108" fill="#ffbc11" stroke="none" /><path d="M 120.51834098615036 95.52812308129327 l 17.405451263099184 -3.7934370919981246 a38.814036562303,38.814036562303 0 0,0 0.1362969480119499,0.6522302362877879 l -17.4680059219355 3.494090404424932" fill="#ff9b0e" stroke="none" /><path d="M 120.592083275326 95.88100663000786 l 18.85372028817277 -3.7712720868666185 a40.227201092666526,40.227201092666526 0 0,0 0.1296344690024768,0.6783023201334412 l -18.915681049457405 3.4470672016998627" fill="#ffb010" stroke="none" /><path d="M 120.7213421655516 96.59031103205396 l 27.37881898234682 -4.505174244682649 a48.74700567346081,48.74700567346081 0 0,0 0.1287814827376727,0.8268695007781821 l -27.452121957222758 4.034516561973025" fill="#d8ff1c" stroke="none" /><path d="M 120.77682067341334 96.94652285012252 l 32.87662283696978 -4.831731388348897 a54.229775162849336,54.229775162849336 0 0,0 0.12745413191735985,0.922194607349243 l -32.95472148544235 4.266648472799568" fill="#92ff23" stroke="none" /><path d="M 120.86939407059847 97.66154086499901 l 22.308193859327897 -2.499679652377286 a43.44780416053793,43.44780416053793 0 0,0 0.0766907691502979,0.7419136232717018 l -22.347817020959862 2.1163615068226527" fill="#ffde14" stroke="none" /><path d="M 120.9064616781168 98.02013634271609 l 11.105596789720378 -1.0517115624319684 a32.15528472368145,32.15528472368145 0 0,0 0.047323969615793826,0.5499762613518704 l -11.122014382033914 0.8609142537044361" fill="#ff3505" stroke="none" /><path d="M 120.99303781780057 99.45929381324524 l 14.08130398615089 -0.36268444085925877 a35.0859739441059,35.0859739441059 0 0,0 0.010339616651453373,0.6022308340181882 l -14.08545503440101 0.12090669087200419" fill="#ff6309" stroke="none" /><line stroke="#e1ed5e" stroke-width="0.3" x1="184.99686870605535" x2="189.99668451229388" y1="99.2704041080226" y2="99.22748670261217" /><path d="M 185.99683186730306 99.26182062694052 a86.0,86.0 0 0,1 -10.086455211305974,41.156179273409016" fill="none" id="id64" stroke="none" /><text fill="#e1ed5e" style="font-size:6.75px; font-family:Arial;" text-anchor="middle"><textPath startOffset="21.40746469413373" xlink:href="#id64">April</textPath></text><path d="M 120.99922638620191 100.18025310272382 l 15.745007260467528 0.135151950786781 a36.74558730825804,36.74558730825804 0 0,0 -0.010828694309726602,0.6307171557042558 l -15.740367134559133 -0.4054160224601078" fill="#ff7c0b" stroke="none" /><path d="M 120.99303781780057 100.54070618675476 l 18.550319874617752 0.47779043745543853 a39.55647194788821,39.55647194788821 0 0,0 -0.02331065341217168,0.6786642399414101 l -18.539384534208732 -0.7961609419609593" fill="#ffa60f" stroke="none" /><path d="M 120.98066250479742 100.90099992219065 l 19.93625843936634 0.8561487178269196 a40.95463332632906,40.95463332632906 0 0,0 -0.03619299518693073,0.7021344375900872 l -19.91862385472284 -1.1982549487937375" fill="#ffbb11" stroke="none" /><path d="M 120.93736805541906 101.62068470465957 l 22.21543181253174 1.7196149225002098 a43.281886951040136,43.281886951040136 0 0,0 -0.06369934897440836,0.7402829915561809 l -22.182638840859592 -2.100718961432048" fill="#ffdc14" stroke="none" /><path d="M 120.9064616781168 101.97986365728391 l 23.438608034760318 2.219660549920694 a44.54347552006723,44.54347552006723 0 0,0 -0.07862476514668418,0.7606232801570029 l -23.397050877131967 -2.621688352360628" fill="#ffed16" stroke="none" /><path d="M 120.82617615685814 102.69636545807757 l 29.953765339284455 3.878114618444309 a51.20377180079849,51.20377180079849 0 0,0 -0.12034223387738592,0.8707364559199965 l -29.88277858885186 -4.391739382564391" fill="#b8ff1f" stroke="none" /><path d="M 120.7213421655516 103.40968896794604 l 11.798625117273268 1.9414592731438904 a32.95729144778315,32.95729144778315 0 0,0 -0.09665146708444525,0.5574599780152045 l -11.763558832696587 -2.1437122840796827" fill="#ff4206" stroke="none" /><path d="M 120.65975698304385 103.76489593502545 l 11.097185078358025 2.022276787961506 a32.27994326539189,32.27994326539189 0 0,0 -0.10402397360431491,0.5442973862450191 l -11.060834812471551 -2.2124767392398397" fill="#ff3705" stroke="none" /><path d="M 120.592083275326 104.11899336999214 l 54.34466692508026 10.870455396179075 a76.42120193317925,76.42120193317925 0 0,0 -0.2683559224812448,1.2841802350102214 l -54.150053291774654 -11.801752082474705" fill="#42ffda" stroke="none" /><path d="M 120.35273937422433 105.17358676015961 l 17.458493446191902 4.4378807631144275 a39.01371086362681,39.01371086362681 0 0,0 -0.17056519286303393,0.6476638192296603 l -17.37973877252414 -4.736925086716892" fill="#ff9e0e" stroke="none" /><path d="M 120.16314734710363 105.8691983318838 l 29.780786447319066 8.668752904982393 a52.01681025425509,52.01681025425509 0 0,0 -0.256922618154489,0.8552118362833686 l -29.62758750916095 -9.178702344856484" fill="#aeff20" stroke="none" /><path d="M 119.94978838288452 106.5578916946017 l 17.003851466290257 5.589503716374891 a38.898980878335784,38.898980878335784 0 0,0 -0.21397139892502828,0.6325684206958724 l -16.905394645792864 -5.880573811544924" fill="#ff9d0e" stroke="none" /><path d="M 119.83427380445688 106.89939002012753 l 24.077658102420273 8.37545935170829 a46.492782097079214,46.492782097079214 0 0,0 -0.26868362521359684,0.7515559191693957 l -23.930334307162735 -8.787550227258606" fill="#f6ff19" stroke="none" /><path d="M 119.31412917781788 108.2440532568976 l 8.543022046502761 3.6465081121600047 a30.288716116831267,30.288716116831267 0 0,0 -0.20822211259414744,0.4764529424371931 l -8.479166051891648 -3.792623124373043" fill="#ff1702" stroke="none" /><path d="M 119.0197475246899 108.90220220490707 l 28.097990118161874 13.151278125992684 a52.02342929186804,52.02342929186804 0 0,0 -0.38552022237478833,0.8055889907340749 l -27.868090637827173 -13.631679618791862" fill="#adff20" stroke="none" /><path d="M 118.8641267826498 109.22738970284198 l 16.41444610358329 8.029128127646269 a39.272956503467114,39.272956503467114 0 0,0 -0.3014294541743186,0.6030608279349995 l -16.27419673619724 -8.309720811745015" fill="#ffa20f" stroke="none" /><line stroke="#e1ed5e" stroke-width="0.3" x1="174.33088141563837" x2="178.70328620479359" y1="141.23008692659167" y2="143.65538615756765" /><path d="M 175.20536237346943 141.71514677278685 a86.0,86.0 0 0,1 -30.301960400862466,31.631185727798858" fill="none" id="id65" stroke="none" /><text fill="#e1ed5e" style="font-size:6.75px; font-family:Arial;" text-anchor="middle"><textPath startOffset="22.145653131862474" xlink:href="#id65">May</textPath></text><line stroke="#e1ed5e" stroke-width="0.3" x1="143.1302829299769" x2="145.66735839644613" y1="173.24464959558577" y2="177.55315839532614" /><path d="M 143.63769802327073 174.10635135553383 a86.0,86.0 0 0,1 -40.68552437913181,11.842963189579606" fill="none" id="id66" stroke="none" /><text fill="#e1ed5e" style="font-size:6.75px; font-family:Arial;" text-anchor="middle"><textPath startOffset="21.407464694133747" xlink:href="#id66">June</textPath></text><line stroke="#e1ed5e" stroke-width="0.3" x1="101.45913802915013" x2="101.54496967792366" y1="184.9874750549273" y2="189.98673829345242" /><path d="M 101.47630435890484 185.9873277026323 a86.0,86.0 0 0,1 -42.54439059252881,-10.42667462771756" fill="none" id="id67" stroke="none" /><text fill="#e1ed5e" style="font-size:6.75px; font-family:Arial;" text-anchor="middle"><textPath startOffset="22.145653131862474" xlink:href="#id67">July</textPath></text><line stroke="#e1ed5e" stroke-width="0.3" x1="58.13341422392154" x2="55.67067388415222" y1="173.97424548756322" y2="178.32567169271397" /><path d="M 57.64086615596768 174.84453072859336 a86.0,86.0 0 0,1 -31.369924170532247,-30.572349798747897" fill="none" id="id68" stroke="none" /><text fill="#e1ed5e" style="font-size:6.75px; font-family:Arial;" text-anchor="middle"><textPath startOffset="22.145653131862474" xlink:href="#id68">August</textPath></text><line stroke="#e1ed5e" stroke-width="0.3" x1="26.387840678322732" x2="22.057713659400548" y1="142.50000000000003" y2="145.00000000000006" /><path d="M 25.521815274538298 143.00000000000003 a86.0,86.0 0 0,1 -11.493303480769221,-40.785679425670985" fill="none" id="id69" stroke="none" /><text fill="#e1ed5e" style="font-size:6.75px; font-family:Arial;" text-anchor="middle"><textPath startOffset="21.40746469413373" xlink:href="#id69">September</textPath></text><line stroke="#e1ed5e" stroke-width="0.3" x1="15.003131293944662" x2="10.003315487706104" y1="100.72959589197737" y2="100.7725132973878" /><path d="M 14.003168132696942 100.73817937305945 a86.0,86.0 0 0,1 10.791469493833604,-42.45332614584628" fill="none" id="id70" stroke="none" /><text fill="#e1ed5e" style="font-size:6.75px; font-family:Arial;" text-anchor="middle"><textPath startOffset="22.145653131862435" xlink:href="#id70">October</textPath></text><line stroke="#e1ed5e" stroke-width="0.3" x1="26.387840678322718" x2="22.05771365940052" y1="57.49999999999999" y2="54.99999999999999" /><path d="M 25.521815274538284 56.99999999999999 a86.0,86.0 0 0,1 29.574782752854787,-30.34633250058573" fill="none" id="id71" stroke="none" /><text fill="#e1ed5e" style="font-size:6.75px; font-family:Arial;" text-anchor="middle"><textPath startOffset="21.40746469413373" xlink:href="#id71">November</textPath></text><line stroke="#e1ed5e" stroke-width="0.3" x1="56.869717070023135" x2="54.33264160355391" y1="26.7553504044142" y2="22.446841604673864" /><path d="M 56.362301976729285 25.89364864446614 a86.0,86.0 0 0,1 42.16139366436587,-11.88097634709845" fill="none" id="id72" stroke="none" /><text fill="#e1ed5e" style="font-size:6.75px; font-family:Arial;" text-anchor="middle"><textPath startOffset="22.145653131862474" xlink:href="#id72">December</textPath></text></svg>