<?xml version="1.0" encoding="utf-8" ?>
<svg baseProfile="full" height="200mm" version="1.1" viewBox="0,0,200,200" width="200mm" xmlns="http://www.w3.org/2000/svg" xmlns:ev="http://www.w3.org/2001/xml-events" xmlns:xlink="http://www.w3.org/1999/xlink"><defs /><rect fill="#1a1a1a" height="200" width="200" x="0" y="0" /><text alignment-baseline="middle" fill="#e1ed5e" style="dominant-baseline: central; font-size:9.0px; font-family:Arial;" text-anchor="middle" x="100.0" y="100.0">2024</text><line stroke="#e1ed5e" stroke-width="0.3" x1="100.0" x2="100.0" y1="15.0" y2="10.0" /><path d="M 100.0 14.0 a86.0,86.0 0 0,1 42.35913384403234,11.155469271406648" fill="none" id="id61" stroke="none" /><text fill="#e1ed5e" style="font-size:6.75px; font-family:Arial;" text-anchor="middle"><textPath startOffset="22.145653131862478" xlink:href="#id61">January</textPath></text><path d="M 100.36049292484886 79.00309439819443 l 0.5540186140658957 -32.26880679020826 a53.27356237369098,53.27356237369098 0 0,0 0.9142420281666733,0.023547631605838185 l -1.1078739563033104 32.25454144125238" fill="#ff3505" stroke="none" /><path d="M 100.72087961077811 79.0123766808444 l 1.0907889903304322 -31.757131298285067 a52.775858901341174,52.775858901341174 0 0,0 0.9051668970680068,0.03887176125354746 l -1.6357816479992753 31.733726968605687" fill="#ff2803" stroke="none" /><path d="M 101.08105385017728 79.02784411241856 l 1.647003316662699 -31.951424342783223 a52.99384530589748,52.99384530589748 0 0,0 0.9081016445498002,0.054629139920805904 l -2.1952493133449615 31.918443225037727" fill="#ff2e04" stroke="none" /><path d="M 101.80034050326958 79.07731436759882 l 2.789155115528338 -32.41421028756623 a53.53398860922285,53.53398860922285 0 0,0 0.9149224707424679,0.08664410922061795 l -3.345177149655819 32.36155442284043" fill="#ff3c05" stroke="none" /><path d="M 102.15924093988457 79.11130261209362 l 4.129097050685747 -39.9452683504983 a61.158111335660486,61.158111335660486 0 0,0 1.0433693151175476,0.11691170801905214 l -4.814202267404092 39.86850088197228" fill="#fffa17" stroke="none" /><path d="M 102.87502721639298 79.19773525538626 l 4.440419584297121 -32.12866411943228 a53.43406209810767,53.43406209810767 0 0,0 0.9075518312283388,0.13337886592684148 l -4.991296521133142 32.04770418020655" fill="#ff3a05" stroke="none" /><path d="M 103.23170211078529 79.25015418208739 l 4.982865477595909 -31.99357083267497 a53.379276134484655,53.379276134484655 0 0,0 0.9042004472275488,0.14878583950266946 l -5.531343427876528 31.90331899467663" fill="#ff3805" stroke="none" /><path d="M 103.58742460773223 79.30868818359171 l 6.673150223841127 -38.488957170452075 a60.0631636964909,60.0631636964909 0 0,0 1.0143960931515537,0.18485675948397595 l -7.332881050543734 38.36873223703673" fill="#ffe115" stroke="none" /><path d="M 104.29559338865022 79.4440306129975 l 7.346545893001286 -35.15588157756158 a56.91528568803968,56.91528568803968 0 0,0 0.9546525089612705,0.20806207105588723 l -7.948960818581691 35.024588048371974" fill="#ff940d" stroke="none" /><path d="M 104.64783097203109 79.52079915486377 l 8.781693643113147 -38.69376252277522 a60.67776961234613,60.67776961234613 0 0,0 1.0138037304643497,0.23925491994514345 l -9.444629527317382 38.53731145918385" fill="#ffef16" stroke="none" /><path d="M 105.3480935250658 79.69241777938227 l 8.916764420351308 -33.85840688078374 a56.01286055484108,56.01286055484108 0 0,0 0.9277292708488206,0.2528567381986672 l -9.496675092134822 33.700349648440934" fill="#ff7d0b" stroke="none" /><path d="M 105.69591212413111 79.78721728523813 l 9.646215022786727 -34.23101410736789 a56.56419254087819,56.56419254087819 0 0,0 0.9323394717021009,0.27139043215143194 l -10.232414506870432 34.06037998091394" fill="#ff8b0c" stroke="none" /><path d="M 106.04205211174951 79.88797359093562 l 8.721401952302468 -29.03071061695685 a51.31245636597464,51.31245636597464 0 0,0 0.8414249999994818,0.2606756158640347 l -9.218467585173581 28.876718413286167" fill="#ff0000" stroke="none" /><path d="M 106.72888874123014 80.10723608172694 l 20.186666223690402 -59.67829175481916 a84.0,84.0 0 0,0 1.3619769118199267,0.4737662697256382 l -21.208148907555344 59.32296705252493" fill="#4dd2ff" stroke="none" /><line stroke="#e1ed5e" stroke-width="0.3" x1="143.13028292997686" x2="145.6673583964461" y1="26.7553504044142" y2="22.446841604673864" /><path d="M 143.63769802327073 25.89364864446614 a86.0,86.0 0 0,1 29.32050498858742,28.57503671076993" fill="none" id="id62" stroke="none" /><text fill="#e1ed5e" style="font-size:6.75px; font-family:Arial;" text-anchor="middle"><textPath startOffset="20.669276256404974" xlink:href="#id62">February</textPath></text><line stroke="#e1ed5e" stroke-width="0.3" x1="172.87174338648825" x2="177.1583165268699" y1="56.24261187166439" y2="53.66864786411523" /><path d="M 173.72905801456457 55.72781907015455 a86.0,86.0 0 0,1 12.242430191666344,42.057860355516425" fill="none" id="id63" stroke="none" /><text fill="#e1ed5e" style="font-size:6.75px; font-family:Arial;" text-anchor="middle"><textPath startOffset="22.145653131862474" xlink:href="#id63">March</textPath></text><line stroke="#e1ed5e" stroke-width="0.3" x1="184.99686870605535" x2="189.99668451229388" y1="99.2704041080226" y2="99.22748670261217" /><path d="M 185.99683186730306 99.26182062694052 a86.0,86.0 0 0,1 -10.086455211305974,41.156179273409016" fill="none" id="id64" stroke="none" /><text fill="#e1ed5e" style="font-size:6.75px; font-family:Arial;" text-anchor="middle"><textPath startOffset="21.40746469413373" xlink:href="#id64">April</textPath></text><line stroke="#e1ed5e" stroke-width="0.3" x1="174.33088141563837" x2="178.70328620479359" y1="141.23008692659167" y2="143.65538615756765" /><path d="M 175.20536237346943 141.71514677278685 a86.0,86.0 0 0,1 -30.301960400862466,31.631185727798858" fill="none" id="id65" stroke="none" /><text fill="#e1ed5e" style="font-size:6.75px; font-family:Arial;" text-anchor="middle"><textPath startOffset="22.145653131862474" xlink:href="#id65">May</textPath></text><line stroke="#e1ed5e" stroke-width="0.3" x1="143.1302829299769" x2="145.66735839644613" y1="173.24464959558577" y2="177.55315839532614" /><path d="M 143.63769802327073 174.10635135553383 a86.0,86.0 0 0,1 -40.68552437913181,11.842963189579606" fill="none" id="id66" stroke="none" /><text fill="#e1ed5e" style="font-size:6.75px; font-family:Arial;" text-anchor="middle"><textPath startOffset="21.407464694133747" xlink:href="#id66">June</textPath></text><line stroke="#e1ed5e" stroke-width="0.3" x1="101.45913802915013" x2="101.54496967792366" y1="184.9874750549273" y2="189.98673829345242" /><path d="M 101.47630435890484 185.9873277026323 a86.0,86.0 0 0,1 -42.54439059252881,-10.42667462771756" fill="none" id="id67" stroke="none" /><text fill="#e1ed5e" style="font-size:6.75px; font-family:Arial;" text-anchor="middle"><textPath startOffset="22.145653131862474" xlink:href="#id67">July</textPath></text><line stroke="#e1ed5e" stroke-width="0.3" x1="58.13341422392154" x2="55.67067388415222" y1="173.97424548756322" y2="178.32567169271397" /><path d="M 57.64086615596768 174.84453072859336 a86.0,86.0 0 0,1 -31.369924170532247,-30.572349798747897" fill="none" id="id68" stroke="none" /><text fill="#e1ed5e" style="font-size:6.75px; font-family:Arial;" text-anchor="middle"><textPath startOffset="22.145653131862474" xlink:href="#id68">August</textPath></text><line stroke="#e1ed5e" stroke-width="0.3" x1="26.387840678322732" x2="22.057713659400548" y1="142.50000000000003" y2="145.00000000000006" /><path d="M 25.521815274538298 143.00000000000003 a86.0,86.0 0 0,1 -11.493303480769221,-40.785679425670985" fill="none" id="id69" stroke="none" /><text fill="#e1ed5e" style="font-size:6.75px; font-family:Arial;" text-anchor="middle"><textPath startOffset="21.40746469413373" xlink:href="#id69">September</textPath></text><line stroke="#e1ed5e" stroke-width="0.3" x1="15.003131293944662" x2="10.003315487706104" y1="100.72959589197737" y2="100.7725132973878" /><path d="M 14.003168132696942 100.73817937305945 a86.0,86.0 0 0,1 10.791469493833604,-42.45332614584628" fill="none" id="id70" stroke="none" /><text fill="#e1ed5e" style="font-size:6.75px; font-family:Arial;" text-anchor="middle"><textPath startOffset="22.145653131862435" xlink:href="#id70">October</textPath></text><line stroke="#e1ed5e" stroke-width="0.3" x1="26.387840678322718" x2="22.05771365940052" y1="57.49999999999999" y2="54.99999999999999" /><path d="M 25.521815274538284 56.99999999999999 a86.0,86.0 0 0,1 29.574782752854787,-30.34633250058573" fill="none" id="id71" stroke="none" /><text fill="#e1ed5e" style="font-size:6.75px; font-family:Arial;" text-anchor="middle"><textPath startOffset="21.40746469413373" xlink:href="#id71">November</textPath></text><line stroke="#e1ed5e" stroke-width="0.3" x1="56.869717070023135" x2="54.33264160355391" y1="26.7553504044142" y2="22.446841604673864" /><path d="M 56.362301976729285 25.89364864446614 a86.0,86.0 0 0,1 42.16139366436587,-11.88097634709845" fill="none" id="id72" stroke="none" /><text fill="#e1ed5e" style="font-size:6.75px; font-family:Arial;" text-anchor="middle"><textPath startOffset="22.145653131862474" xlink:href="#id72">December</textPath></text></svg>