<?xml version="1.0" encoding="utf-8" ?>
<svg baseProfile="full" height="200mm" version="1.1" viewBox="0,0,200,200" width="200mm" xmlns="http://www.w3.org/2000/svg" xmlns:ev="http://www.w3.org/2001/xml-events" xmlns:xlink="http://www.w3.org/1999/xlink"><defs /><rect fill="#1a1a1a" height="200" width="200" x="0" y="0" /><text alignment-baseline="middle" fill="#e1ed5e" style="dominant-baseline: central; font-size:9.0px; font-family:Arial;" text-anchor="middle" x="100.0" y="100.0">2021</text><line stroke="#e1ed5e" stroke-width="0.3" x1="100.0" x2="100.0" y1="15.0" y2="10.0" /><path d="M 100.0 14.0 a86.0,86.0 0 0,1 42.46469731375804,11.215312516191453" fill="none" id="id25" stroke="none" /><text fill="#e1ed5e" style="font-size:6.75px; font-family:Arial;" text-anchor="middle"><textPath startOffset="22.20632615414155" xlink:href="#id25">January</textPath></text><line stroke="#e1ed5e" stroke-width="0.3" x1="143.23703022742887" x2="145.7803849466894" y1="26.81831364943548" y2="22.513508569990506" /><path d="M 143.74570117128098 25.957352633546492 a86.0,86.0 0 0,1 28.547481713284135,27.462654790039103" fill="none" id="id26" stroke="none" /><text fill="#e1ed5e" style="font-size:6.75px; font-family:Arial;" text-anchor="middle"><textPath startOffset="19.985693538727396" xlink:href="#id26">February</textPath></text><path d="M 114.16331599549186 84.49514656593476 l 10.753505180173697 -11.772068191807953 a36.94426113598868,36.94426113598868 0 0,0 0.46583567084924954,0.4329434874489384 l -10.954548734817793 11.585220118284374" fill="#ff910d" stroke="none" /><path d="M 114.68862486808459 84.99185889309783 l 25.746635705906698 -26.306692775703095 a57.80939193966533,57.80939193966533 0 0,0 0.7051760299541907,0.702147779977363 l -26.19564753602821 25.859609145075616" fill="#60ff29" stroke="none" /><path d="M 117.45458315368197 88.32363383020206 l 28.48865236508037 -19.05768437836275 a55.275335847277866,55.275335847277866 0 0,0 0.522229172086697,0.7953908571721288 l -28.812478172524994 18.56447545721295" fill="#7dff26" stroke="none" /><line stroke="#e1ed5e" stroke-width="0.3" x1="172.23445277983987" x2="176.4835382374775" y1="55.19839476539836" y2="52.563006222186495" /><path d="M 173.08426987136738 54.67131705675599 a86.0,86.0 0 0,1 12.851231095245387,41.99856678651699" fill="none" id="id27" stroke="none" /><text fill="#e1ed5e" style="font-size:6.75px; font-family:Arial;" text-anchor="middle"><textPath startOffset="22.20632615414155" xlink:href="#id27">March</textPath></text><path d="M 120.53481517161879 95.60439243477599 l 22.160951843234134 -4.743692444299027 a43.66297431062927,43.66297431062927 0 0,0 0.15099218747063334,0.7362915298907331 l -22.239323326619765 4.361525258244883" fill="#ffef16" stroke="none" /><path d="M 120.87857604477298 97.74499172005257 l 19.472482925566325 -2.1031420023148635 a40.585729436719305,40.585729436719305 0 0,0 0.06903994817919028,0.6952228563141545 l -19.505799999427744 1.7676436152962742" fill="#ffc512" stroke="none" /><path d="M 120.91429891909075 98.10471618934814 l 40.226014421714545 -3.645339210052683 a61.39084963469244,61.39084963469244 0 0,0 0.0863141202011465,1.0532508921033437 l -40.282803025735184 2.952374400741571" fill="#38ff2e" stroke="none" /><line stroke="#e1ed5e" stroke-width="0.3" x1="184.98032266829074" x2="189.97916517819016" y1="98.17113171792111" y2="98.06355123074" /><path d="M 185.9800911702706 98.14961562048488 a86.0,86.0 0 0,1 -9.607161424134198,41.387399972396054" fill="none" id="id28" stroke="none" /><text fill="#e1ed5e" style="font-size:6.75px; font-family:Arial;" text-anchor="middle"><textPath startOffset="21.466115282336823" xlink:href="#id28">April</textPath></text><path d="M 120.9904718944345 100.63252640178507 l 21.62308009464681 0.6515894028758707 a42.632895357058686,42.632895357058686 0 0,0 -0.0284176002560316,0.7333319918400254 l -21.608660361539574 -1.0236986417299023" fill="#ffe115" stroke="none" /><path d="M 120.81339534386255 102.79330883721812 l 19.07199648761197 2.559600461726143 a40.242988451567285,40.242988451567285 0 0,0 -0.09805098543106633,0.6857683637349261 l -19.0251114511643 -2.8875142974414785" fill="#ffc011" stroke="none" /><path d="M 120.32669344350535 105.2749913415812 l 40.119829149025676 10.411518822528754 a62.44876855998114,62.44876855998114 0 0,0 -0.2789732908904273,1.038163396014818 l -39.93466778179347 -11.10057315171912" fill="#30ff32" stroke="none" /><path d="M 119.67450827220406 107.3425965602758 l 14.499690635678077 5.411336187598962 a36.4765496111242,36.4765496111242 0 0,0 -0.22460126311474313,0.5863630243789134 l -14.404395092969827 -5.660122778811019" fill="#ff8a0c" stroke="none" /><path d="M 119.54520255179757 107.68017299344265 l 22.693716797414734 8.917363245862646 a45.38286589677115,45.38286589677115 0 0,0 -0.2919574542933867,0.7246144582996279 l -22.536856728863953 -9.306677072005087" fill="#f8ff18" stroke="none" /><line stroke="#e1ed5e" stroke-width="0.3" x1="174.80103733775053" x2="179.2010983576182" y1="140.37084112569926" y2="142.7455964860345" /><path d="M 175.68104954172406 140.8457921977663 a86.0,86.0 0 0,1 -30.038265399797805,32.042727171017184" fill="none" id="id29" stroke="none" /><text fill="#e1ed5e" style="font-size:6.75px; font-family:Arial;" text-anchor="middle"><textPath startOffset="22.206326154141568" xlink:href="#id29">May</textPath></text><path d="M 118.30583269289576 110.29060199501025 l 24.21812481557476 13.614189953745138 a48.78243577657317,48.78243577657317 0 0,0 -0.4177820808210205,0.7284382728678409 l -23.98019073860136 -14.029048072471292" fill="#ccff1d" stroke="none" /><path d="M 117.35343817320211 111.8261652097733 l 21.687196580998304 14.779570892169245 a47.24443200565638,47.24443200565638 0 0,0 -0.46375830263267354,0.6680784236709949 l -21.429577371203493 -15.150690578027259" fill="#dfff1b" stroke="none" /><path d="M 115.56566222782051 114.09645910891815 l 23.16093866782143 20.97483679631538 a52.24696559038416,52.24696559038416 0 0,0 -0.6094324710804054,0.6614185829829269 l -22.796459788745302 -21.37040663409964" fill="#a1ff22" stroke="none" /><path d="M 113.75828350139079 115.86535959552629 l 20.402337919102255 23.52694852110568 a52.141173697855294,52.141173697855294 0 0,0 -0.6831350940987054,0.5821825474902793 l -19.9943373484265 -23.874655458818907" fill="#a2ff22" stroke="none" /><line stroke="#e1ed5e" stroke-width="0.3" x1="143.8653032363475" x2="146.44561519142675" y1="172.8068346515853" y2="177.08958963109032" /><path d="M 144.38136562736335 173.6633856474863 a86.0,86.0 0 0,1 -40.68145358897372,12.25698825130547" fill="none" id="id30" stroke="none" /><text fill="#e1ed5e" style="font-size:6.75px; font-family:Arial;" text-anchor="middle"><textPath startOffset="21.466115282336833" xlink:href="#id30">June</textPath></text><path d="M 110.5260780823613 118.17145234162733 l 15.542276499173576 26.831050888591843 a52.00754183360829,52.00754183360829 0 0,0 -0.7785064240377185,0.4420562653382145 l -15.078121308214659 -27.094610319724683" fill="#a4ff21" stroke="none" /><path d="M 103.7750983002368 120.6578951692458 l 3.3714973182794874 18.44933101743126 a39.75486094744285,39.75486094744285 0 0,0 -0.6742254578770194,0.11722273812216193 l -3.053422888930418 -18.504632334074426" fill="#ffb911" stroke="none" /><path d="M 102.34483914955558 120.86867818915974 l 7.034517448666764 62.60603456747921 a84.0,84.0 0 0,0 -1.4382696135775894,0.14908252617696638 l -5.955815238483573 -62.71784646211194" fill="#4dd2ff" stroke="none" /><path d="M 101.98527174616119 120.90594882070398 l 2.5213021360258883 26.550628909725656 a47.670074239924574,47.670074239924574 0 0,0 -0.8175546719614949,0.07054205718748963 l -2.0639031463228514 -26.59009521919181" fill="#daff1c" stroke="none" /><line stroke="#e1ed5e" stroke-width="0.3" x1="102.19456741930631" x2="102.32365962044197" y1="184.97166512339345" y2="189.96999836594603" /><path d="M 102.22038585953345 185.97133177190398 a86.0,86.0 0 0,1 -42.740103519485714,-10.115201625700543" fill="none" id="id31" stroke="none" /><text fill="#e1ed5e" style="font-size:6.75px; font-family:Arial;" text-anchor="middle"><textPath startOffset="22.20632615414155" xlink:href="#id31">July</textPath></text><path d="M 99.45781275523022 120.99299961872073 l -0.8108529723513174 31.395493537730946 a52.40596276219655,52.40596276219655 0 0,0 -0.901581323660863,-0.031052283729744508 l 1.3511546476868235 -31.376884455575105" fill="#9fff22" stroke="none" /><path d="M 98.01472825383883 120.90594882070398 l -1.939593651836646 20.424934619991934 a41.51682182418101,41.51682182418101 0 0,0 -0.7108617057385238,-0.07368372233794675 l 2.290887954180763 -20.388521529198226" fill="#ffd213" stroke="none" /><path d="M 94.81253420990036 120.34920634021253 l -7.692407805346023 30.17550380434238 a52.14055503181711,52.14055503181711 0 0,0 -0.8677915381301701,-0.22919163245473256 l 8.210689786287682 -30.038620822584065" fill="#a2ff22" stroke="none" /><path d="M 90.10565033884886 118.52300852407294 l -10.065454517711814 18.84333040728147 a42.36315696441197,42.36315696441197 0 0,0 -0.6402428398920232,-0.3491114444599939 l 10.388320169472477 -18.66727831106171" fill="#ffde14" stroke="none" /><line stroke="#e1ed5e" stroke-width="0.3" x1="58.666819895761336" x2="56.23545636021788" y1="174.27360380694188" y2="178.64263932499728" /><path d="M 58.180547188652646 175.14741091055294 a86.0,86.0 0 0,1 -31.652253787137756,-30.449443065178592" fill="none" id="id32" stroke="none" /><text fill="#e1ed5e" style="font-size:6.75px; font-family:Arial;" text-anchor="middle"><textPath startOffset="22.20632615414155" xlink:href="#id32">August</textPath></text><path d="M 88.24862548938628 117.40417183066458 l -11.012239918928573 16.30948921051171 a40.67914800848456,40.67914800848456 0 0,0 -0.5769525797015995,-0.3968332452532555 l 11.291349383253063 -16.117515175893352" fill="#ffc612" stroke="none" /><path d="M 87.95078237400918 117.19931262002967 l -12.923872122527507 18.447813276868974 a43.52439311807683,43.52439311807683 0 0,0 -0.6099066412672374,-0.43515219451848586 l 13.239506091643634 -18.22261682050627" fill="#ffed16" stroke="none" /><path d="M 84.19399662182784 113.82643327865904 l -23.44451620563906 20.508286080424377 a52.14859769031346,52.14859769031346 0 0,0 -0.5852003648143977,-0.6807202320727165 l 23.794059080024237 -20.10168874919013" fill="#a2ff22" stroke="none" /><path d="M 82.44556493220864 111.52570212397912 l -16.408411378472906 10.77325821911411 a40.629036059391936,40.629036059391936 0 0,0 -0.37880798410036104,-0.5879184035458003 l 16.591424225950313 -10.489218215646861" fill="#ffc612" stroke="none" /><line stroke="#e1ed5e" stroke-width="0.3" x1="26.63291911575756" x2="22.317208475507996" y1="142.92168965132927" y2="145.44649492493687" /><path d="M 25.769776987707644 143.4266507060508 a86.0,86.0 0 0,1 -11.730757126820373,-40.83630448921669" fill="none" id="id33" stroke="none" /><text fill="#e1ed5e" style="font-size:6.75px; font-family:Arial;" text-anchor="middle"><textPath startOffset="21.46611528233685" xlink:href="#id33">September</textPath></text><path d="M 79.1416061653843 102.43462659150553 l -36.311081489549736 4.238290122515125 a57.55759486212585,57.55759486212585 0 0,0 -0.10639301731821936,-0.9850672046149334 l 36.37865680836901 -3.6126265960154096" fill="#62ff29" stroke="none" /><line stroke="#e1ed5e" stroke-width="0.3" x1="15.007084014347285" x2="10.007500721073583" y1="101.09737516637583" y2="101.16192664675087" /><path d="M 14.007167355692545 101.11028546245083 a86.0,86.0 0 0,1 10.666146001902534,-42.60595125391555" fill="none" id="id34" stroke="none" /><text fill="#e1ed5e" style="font-size:6.75px; font-family:Arial;" text-anchor="middle"><textPath startOffset="22.20632615414155" xlink:href="#id34">October</textPath></text><path d="M 79.54389044137918 95.25157060432595 l -31.8400333614239 -7.390953296342288 a53.686601461230254,53.686601461230254 0 0,0 0.21670775568486372,-0.8983935531186914 l 31.70809280547822 7.937932081120376" fill="#8fff24" stroke="none" /><path d="M 80.38941819471856 92.48833698450439 l -18.941566552791574 -7.255402534351854 a41.283584727786945,41.283584727786945 0 0,0 0.25990267547710205,-0.6614239601492372 l 18.81387032743278 7.580375499396855" fill="#ffcf13" stroke="none" /><line stroke="#e1ed5e" stroke-width="0.3" x1="26.266209847984243" x2="21.928928074336255" y1="57.711370442889674" y2="55.22380399835377" /><path d="M 25.398753493254645 57.213857153982495 a86.0,86.0 0 0,1 29.58750427330803,-30.492523968695096" fill="none" id="id35" stroke="none" /><text fill="#e1ed5e" style="font-size:6.75px; font-family:Arial;" text-anchor="middle"><textPath startOffset="21.46611528233685" xlink:href="#id35">November</textPath></text><path d="M 82.95767976084542 87.72973835380427 l -14.348705812950712 -10.330892281010723 a38.680856705161446,38.680856705161446 0 0,0 0.39369263132836735,-0.5369963066912198 l 14.16875056910871 10.576351031373443" fill="#ffaa0f" stroke="none" /><path d="M 86.65592168130627 83.78471172551755 l -9.954594366779476 -12.096498046383587 a36.665861418807445,36.665861418807445 0 0,0 0.4907928111205607,-0.3968536542406262 l 9.744898157094415 12.266057797888347" fill="#ff8d0d" stroke="none" /><line stroke="#e1ed5e" stroke-width="0.3" x1="56.762969772571076" x2="54.21961505331055" y1="26.818313649435495" y2="22.513508569990535" /><path d="M 56.25429882871897 25.957352633546506 a86.0,86.0 0 0,1 42.265352541879196,-11.944610805530505" fill="none" id="id36" stroke="none" /><text fill="#e1ed5e" style="font-size:6.75px; font-family:Arial;" text-anchor="middle"><textPath startOffset="22.20632615414155" xlink:href="#id36">December</textPath></text><path d="M 90.26544431104013 81.39251694778311 l -13.453555163813506 -25.7163046472307 a50.022861183125144,50.022861183125144 0 0,0 0.766396712689221,-0.39257816324923633 l 13.00889796353552 25.94407533579244" fill="#bcff1f" stroke="none" /><path d="M 98.91598698831166 79.02799685794201 l -0.33356457421295915 -6.453351779955094 a27.461966768795662,27.461966768795662 0 0,0 0.47229243138906113,-0.020337905589135695 l 0.2224313104345739 6.458137412068422" fill="#ff0000" stroke="none" /></svg>