<?xml version="1.0" encoding="utf-8" ?>
<svg baseProfile="full" height="200mm" version="1.1" viewBox="0,0,200,200" width="200mm" xmlns="http://www.w3.org/2000/svg" xmlns:ev="http://www.w3.org/2001/xml-events" xmlns:xlink="http://www.w3.org/1999/xlink"><defs /><rect fill="#1a1a1a" height="200" width="200" x="0" y="0" /><text alignment-baseline="middle" fill="#e1ed5e" style="dominant-baseline: central; font-size:9.0px; font-family:Arial;" text-anchor="middle" x="100.0" y="100.0">2024</text><line stroke="#e1ed5e" stroke-width="0.3" x1="100.0" x2="100.0" y1="15.0" y2="10.0" /><path d="M 100.0 14.0 a86.0,86.0 0 0,1 42.35913384403234,11.155469271406648" fill="none" id="id61" stroke="none" /><text fill="#e1ed5e" style="font-size:6.75px; font-family:Arial;" text-anchor="middle"><textPath startOffset="22.145653131862478" xlink:href="#id61">January</textPath></text><path d="M 100.36049292484886 79.00309439819443 l 0.21240068437927342 -12.371275029989453 a33.37309823441022,33.37309823441022 0 0,0 0.5727247748519377,0.014751358605547927 l -0.42473877330195253 12.36580595403386" fill="#ff6d0a" stroke="none" /><path d="M 100.72087961077811 79.0123766808444 l 0.41818870734188635 -12.17510793035539 a33.182287753568744,33.182287753568744 0 0,0 0.5691145358650385,0.024440226919176813 l -0.6271290038077612 12.166135135010382" fill="#ff6a09" stroke="none" /><path d="M 101.08105385017728 79.02784411241856 l 0.6314311879645287 -12.249596358313935 a33.26585978587528,33.26585978587528 0 0,0 0.5700432154817531,0.03429238430120587 l -0.8416187555787441 12.236951996188038" fill="#ff6b09" stroke="none" /><path d="M 101.80034050326958 79.07731436759882 l 1.0693114641590493 -12.427020092638735 a33.47294092787378,33.47294092787378 0 0,0 0.5720691958953128,0.05417554762938653 l -1.2824802234393753 12.406832789504165" fill="#ff6e0a" stroke="none" /><path d="M 102.15924093988457 79.11130261209362 l 1.5830208898536708 -15.314291108548241 a36.39589124718257,36.39589124718257 0 0,0 0.6209210077670152,0.06957549403757811 l -1.8456777992214828 15.284859854003692" fill="#ff980e" stroke="none" /><path d="M 102.87502721639298 79.19773525538626 l 1.702376300525631 -12.317546872797932 a33.43463091660406,33.43463091660406 0 0,0 0.567871116725042,0.08345749844268514 l -1.913572522858355 12.286508301056365" fill="#ff6e0a" stroke="none" /><path d="M 103.23170211078529 79.25015418208739 l 1.9103402137411623 -12.26575455782188 a33.41362697220135,33.41362697220135 0 0,0 0.5659989913621303,0.09313491864076237 l -2.120616708156363 12.231153640685449" fill="#ff6d0a" stroke="none" /><path d="M 103.58742460773223 79.30868818359171 l 2.5583647164984447 -14.755967825796201 a35.97610818933133,35.97610818933133 0 0,0 0.6075940950840626,0.11072388414853444 l -2.811293545133561 14.709875767716301" fill="#ff920d" stroke="none" /><path d="M 104.29559338865022 79.4440306129975 l 2.816532397793436 -13.478127119646956 a34.76926887678437,34.76926887678437 0 0,0 0.5831925354799086,0.1271040987346386 l -3.0474873498924784 13.427791562778598" fill="#ff810b" stroke="none" /><path d="M 104.64783097203109 79.52079915486377 l 3.366742005503254 -14.834486481836887 a36.211736945905336,36.211736945905336 0 0,0 0.6050254357879828,0.14278435544711154 l -3.620899595031122 14.774505982743548" fill="#ff960d" stroke="none" /><path d="M 105.3480935250658 79.69241777938227 l 3.4185256907380843 -12.980698862610762 a34.42329545454545,34.42329545454545 0 0,0 0.5701458285814837,0.15539578090576714 l -3.6408529202542605 12.920102587560853" fill="#ff7c0b" stroke="none" /><path d="M 105.69591212413111 79.78721728523813 l 3.698183816375951 -13.123549712603548 a34.63466613448535,34.63466613448535 0 0,0 0.5708782336646677,0.16617433375126212 l -3.922922062422223 13.058131684549771" fill="#ff7f0b" stroke="none" /><path d="M 106.04205211174951 79.88797359093562 l 3.343627265194097 -11.129847709999256 a32.62124577385424,32.62124577385424 0 0,0 0.5349253118868312,0.1657212290072751 l -3.5341932099525586 11.070809893185334" fill="#ff6209" stroke="none" /><path d="M 106.72888874123014 80.10723608172694 l 7.73920155819498 -22.879574240806775 a45.15305691209617,45.15305691209617 0 0,0 0.7321121549091207,0.25466661118991957 l -8.130819485149118 22.743349197048264" fill="#f0ff19" stroke="none" /><path d="M 107.06938296918511 80.22567764915836 l 5.160125073464407 -14.433788212934724 a36.32844196093163,36.32844196093163 0 0,0 0.5854256601467984,0.21497641139623314 l -5.407139885265329 14.34308095252977" fill="#ff970e" stroke="none" /><path d="M 107.74402155503746 80.48000691201159 l 4.951486509449915 -12.48098055420025 a34.427289162284,34.427289162284 0 0,0 0.5474685537643554,0.22265069474608296 l -5.16500952440471 12.394142602874874" fill="#ff7c0b" stroke="none" /><path d="M 108.07796709384702 80.6158196554323 l 5.249388928049821 -12.596622454379807 a34.64664725770098,34.64664725770098 0 0,0 0.5470291901712501,0.23349423291777452 l -5.464853193391501 12.504653571802631" fill="#ff7f0b" stroke="none" /><path d="M 108.4095320186766 80.7573450057729 l 5.549082775453097 -12.697387339189403 a34.85698253193088,34.85698253193088 0 0,0 0.5462364651501821,0.24432462301433402 l -5.76623264345891 12.600258965265217" fill="#ff820c" stroke="none" /><path d="M 109.06512990194946 81.05736502329252 l 11.691425225604263 -24.430582109856484 a48.08399464688205,48.08399464688205 0 0,0 0.7415004209966849,0.36270501296942276 l -12.109085895863014 24.22628334678984" fill="#cbff1d" stroke="none" /><path d="M 109.3889696526874 81.21577127319529 l 6.962236667183669 -13.929137151816386 a36.57220604808414,36.57220604808414 0 0,0 0.559159038281992,0.28551058911267074 l -7.20032292717924 13.807568611030883" fill="#ff9b0e" stroke="none" /><path d="M 110.02825361518725 81.54914285379988 l 5.7916978905236585 -10.65607178603502 a33.12829874154771,33.12829874154771 0 0,0 0.4973280340368507,0.27585947702829644 l -5.973770112716609 10.555079393573576" fill="#ff6909" stroke="none" /><path d="M 110.34350942703115 81.72400993836675 l 7.504095635219352 -13.259017958876498 a36.23525544703231,36.23525544703231 0 0,0 0.5387104609317167,0.311024629634194 l -7.7305985640114665 13.128246431966133" fill="#ff960d" stroke="none" /><line stroke="#e1ed5e" stroke-width="0.3" x1="143.13028292997686" x2="145.6673583964461" y1="26.7553504044142" y2="22.446841604673864" /><path d="M 143.63769802327073 25.89364864446614 a86.0,86.0 0 0,1 29.32050498858742,28.57503671076993" fill="none" id="id62" stroke="none" /><text fill="#e1ed5e" style="font-size:6.75px; font-family:Arial;" text-anchor="middle"><textPath startOffset="20.669276256404974" xlink:href="#id62">February</textPath></text><path d="M 110.65571695917076 81.90426304109057 l 6.831822663001395 -11.60192846087104 a34.46397210743802,34.46397210743802 0 0,0 0.5072230884441591,0.3045728909076678 l -7.029978508002989 11.482941569427451" fill="#ff7d0b" stroke="none" /><path d="M 111.27062007382361 82.28071324371311 l 22.667727666319447 -35.63743290094497 a63.235678061607814,63.235678061607814 0 0,0 0.9109381508384152,0.5904591037309517 l -23.276151449414872 35.24305995551013" fill="#31ff43" stroke="none" /><path d="M 111.5731344415666 82.4767994020092 l 5.173429122844837 -7.833231071221021 a30.38743191209617,30.38743191209617 0 0,0 0.4328092228622672,0.2912133608036411 l -5.307134633804106 7.743268036360261" fill="#ff4006" stroke="none" /><path d="M 112.16784306229584 82.88440491214696 l 7.344072633415645 -10.330357882312125 a33.674845041322314,33.674845041322314 0 0,0 0.46827115356095905,0.3389922031365132 l -7.520324797350572 10.202764907802537" fill="#ff710a" stroke="none" /><path d="M 112.45986205192187 83.09580414077388 l 4.616543882775494 -6.263228409909404 a28.780778080390682,28.780778080390682 0 0,0 0.39518339696681837,0.2965529884349264 l -4.723380268653078 6.183056394210462" fill="#ff2803" stroke="none" /><path d="M 113.86319453409587 84.22622945171908 l 3.4832448024530502 -3.9632931747624687 a26.276427498121713,26.276427498121713 0 0,0 0.3362569066135836,0.30068299935684467 l -3.5507667358900097 3.902914645522237" fill="#ff0100" stroke="none" /><path d="M 114.13192950727249 84.46653392183569 l 5.808418124562396 -6.384469003985174 a29.6312899135988,29.6312899135988 0 0,0 0.3733122451763352,0.34553224090700474 l -5.917160141052695 6.283819016945794" fill="#ff3505" stroke="none" /><path d="M 114.39649973595853 84.71141617570332 l 7.6832934705595735 -8.159391409421673 a32.207527235161535,32.207527235161535 0 0,0 0.39926216674070764,0.3824841240619973 l -7.822228123165593 8.026295155054095" fill="#ff5c08" stroke="none" /><path d="M 114.91283532996326 85.21462403516908 l 16.35268442668113 -16.21291873296048 a44.027570905334336,44.027570905334336 0 0,0 0.52751990252622,0.5412818919588489 l -16.628591130358163 15.929814148933888" fill="#feff18" stroke="none" /><path d="M 115.16444852881244 85.47280134310134 l 6.637401361961875 -6.358480360666368 a30.191592317806162,30.191592317806162 0 0,0 0.35531790055042584,0.37733529722297193 l -6.745575096248561 6.243603603498901" fill="#ff3e05" stroke="none" /><path d="M 115.6541949942343 86.00192230759917 l 8.728852930493229 -7.8053941152252415 a32.70969900450789,32.70969900450789 0 0,0 0.37069268877702827,0.4217802327099405 l -8.861556683228846 7.654401604704003" fill="#ff6309" stroke="none" /><path d="M 115.8921839302757 86.27271002978787 l 8.69476934718374 -7.51033467625066 a32.48930550338092,32.48930550338092 0 0,0 0.3609491238960508,0.42519716035588834 l -8.822413034586903 7.35997073344522" fill="#ff6008" stroke="none" /><path d="M 116.35404254752997 86.82634096563983 l 10.222044531845018 -8.234155494288519 a34.12598610067619,34.12598610067619 0 0,0 0.3635775561038485,0.45936836499552647 l -10.361888518590426 8.057467185378314" fill="#ff780b" stroke="none" /><path d="M 116.57777611688842 87.10902102172516 l 10.064716935540922 -7.826384764972768 a33.7495421675432,33.7495421675432 0 0,0 0.3517152651697273,0.4604065723188629 l -10.197584178064956 7.6524572794130234" fill="#ff720a" stroke="none" /><path d="M 116.7966241395341 87.39550010848427 l 17.62438789960365 -13.225669248960594 a43.034912659654395,43.034912659654395 0 0,0 0.438337185966025,0.5946885778569868 l -17.848827105153504 12.921174361834732" fill="#fff316" stroke="none" /><path d="M 117.01052211995028 87.68569379921539 l 7.523178183074368 -5.44620083358799 a30.287589218632608,30.287589218632608 0 0,0 0.3012676233190047,0.4237706409762838 l -7.615560904923333 5.316252965902202" fill="#ff3f05" stroke="none" /><path d="M 117.62189284568427 88.57770195909679 l 9.725636521997819 -6.304040091752063 a32.590035687453046,32.590035687453046 0 0,0 0.3002664445144306,0.4720687237074897 l -9.83242065813814 6.1361576933659014" fill="#ff6109" stroke="none" /><path d="M 117.81537515405839 88.88188828441811 l 10.942828162399007 -6.829134101408615 a33.89893641998498,33.89893641998498 0 0,0 0.30385075262526995,0.4963173691428069 l -11.058446879479678 6.640279616141253" fill="#ff740a" stroke="none" /><line stroke="#e1ed5e" stroke-width="0.3" x1="172.87174338648825" x2="177.1583165268699" y1="56.24261187166439" y2="53.66864786411523" /><path d="M 173.72905801456457 55.72781907015455 a86.0,86.0 0 0,1 12.242430191666344,42.057860355516425" fill="none" id="id63" stroke="none" /><text fill="#e1ed5e" style="font-size:6.75px; font-family:Arial;" text-anchor="middle"><textPath startOffset="22.145653131862474" xlink:href="#id63">March</textPath></text><path d="M 118.18653347947321 89.5 l 27.985621496481823 -16.157506104432763 a53.31501220886552,53.31501220886552 0 0,0 0.4508079672272622,0.7965344825054487 l -28.25886282873046 15.674714851828195" fill="#8cff24" stroke="none" /><path d="M 118.53625476483649 90.13048839642627 l 9.916539431021972 -5.279998695714465 a32.234595698722764,32.234595698722764 0 0,0 0.25586890489676395,0.49066236271925306 l -10.00571640489368 5.108990089890714" fill="#ff5c08" stroke="none" /><path d="M 119.31412917781788 91.75594674310238 l 16.554093320361343 -7.065958071226418 a38.999049117205104,38.999049117205104 0 0,0 0.25753143810517276,0.6179817004242234 l -16.672950603003 6.780743861360917" fill="#ffbd11" stroke="none" /><path d="M 119.4528033332814 92.08871423366111 l 21.4377273398188 -8.718537079743022 a44.14279676934636,44.14279676934636 0 0,0 0.27944770920085654,0.7043907759407753 l -21.58423372398578 8.349245286588681" fill="#fdff18" stroke="none" /><path d="M 119.83427380445688 93.10060997987247 l 14.508981775651785 -5.046977018268765 a36.36172285875281,36.36172285875281 0 0,0 0.20001471842530147,0.5913079747380326 l -14.593481915649452 4.797167369056571" fill="#ff980e" stroke="none" /><path d="M 119.94978838288452 93.4421083053983 l 15.386002622445112 -5.057684666841745 a37.19596403080391,37.19596403080391 0 0,0 0.19419000421219548,0.6082974223752093 l -15.470557342434565 4.792818210775148" fill="#ffa30f" stroke="none" /><path d="M 120.16314734710363 94.1308016681162 l 22.79999771157037 -6.6367470431110895 a44.746290383170546,44.746290383170546 0 0,0 0.20835046417785924,0.7393622951283326 l -22.910566667822813 6.244376824079743" fill="#f5ff19" stroke="none" /><path d="M 120.26092885502905 94.47779374421319 l 12.971285263102146 -3.5353814792019436 a34.44444731404958,34.44444731404958 0 0,0 0.15058869482366696,0.5718098023705561 l -13.030063438730544 3.312191172458589" fill="#ff7c0b" stroke="none" /><path d="M 120.51834098615036 95.52812308129327 l 11.668746604210513 -2.5431490121364213 a32.9426652892562,32.9426652892562 0 0,0 0.1156794071417345,0.5535678395899931 l -11.710683722176613 2.342464721261024" fill="#ff6609" stroke="none" /><path d="M 120.592083275326 95.88100663000786 l 12.639677148489984 -2.528289424502006 a33.890061513899326,33.890061513899326 0 0,0 0.10921267225863551,0.5714468501397589 l -12.681216113030777 2.3109400093289327" fill="#ff740a" stroke="none" /><path d="M 120.7213421655516 96.59031103205396 l 18.354968003895827 -3.020303000156563 a39.60180315552216,39.60180315552216 0 0,0 0.10462137846202431,0.6717443000391303 l -18.404110874496116 2.7047705181859913" fill="#ffc512" stroke="none" /><path d="M 120.77682067341334 96.94652285012252 l 22.04073742690728 -3.239229387277291 a43.27749342599549,43.27749342599549 0 0,0 0.10171341001517231,0.7359475663912819 l -22.093095353477665 2.8603935126859232" fill="#fff617" stroke="none" /><path d="M 120.86939407059847 97.66154086499901 l 14.955582444103326 -1.6758042072215682 a36.049178249436515,36.049178249436515 0 0,0 0.0636312757480273,0.6155748712221165 l -14.98214611233302 1.4188248137165203" fill="#ff930d" stroke="none" /><path d="M 120.9064616781168 98.02013634271609 l 7.445276360200875 -0.7050754121356693 a28.478587528174305,28.478587528174305 0 0,0 0.041912855770531825,0.4870909162185801 l -7.456282838669147 0.5771634485414272" fill="#ff2303" stroke="none" /><path d="M 120.99303781780057 99.45929381324524 l 9.440213045185779 -0.2431464013029508 a30.443343820435764,30.443343820435764 0 0,0 0.008971462647528313,0.5225427222995304 l -9.442995939431974 0.08105676303435408" fill="#ff4106" stroke="none" /><line stroke="#e1ed5e" stroke-width="0.3" x1="184.99686870605535" x2="189.99668451229388" y1="99.2704041080226" y2="99.22748670261217" /><path d="M 185.99683186730306 99.26182062694052 a86.0,86.0 0 0,1 -10.086455211305974,41.156179273409016" fill="none" id="id64" stroke="none" /><text fill="#e1ed5e" style="font-size:6.75px; font-family:Arial;" text-anchor="middle"><textPath startOffset="21.40746469413373" xlink:href="#id64">April</textPath></text><path d="M 120.99922638620191 100.18025310272382 l 10.555572344933081 0.09060689337823405 a31.555961213373404,31.555961213373404 0 0,0 -0.00929934402089188,0.541640168520039 l -10.55246156931352 -0.2717939778673441" fill="#ff5207" stroke="none" /><path d="M 120.99303781780057 100.54070618675476 l 12.436275208955564 0.3203143348775027 a33.44039960555973,33.44039960555973 0 0,0 -0.019706448193778852,0.5737317375407598 l -12.42894407376494 -0.5337523369823731" fill="#ff6e0a" stroke="none" /><path d="M 120.98066250479742 100.90099992219065 l 13.365418939652205 0.5739685971269223 a34.37773760330579,34.37773760330579 0 0,0 -0.030380769904588965,0.5893788198611197 l -13.353596580291043 -0.8033192103647726" fill="#ff7b0b" stroke="none" /><path d="M 120.93736805541906 101.62068470465957 l 14.893394064026841 1.152842892962786 a35.937946093163035,35.937946093163035 0 0,0 -0.05289103435350232,0.6146739922482088 l -14.8714094069756 -1.4083379325866523" fill="#ff920d" stroke="none" /><path d="M 120.9064616781168 101.97986365728391 l 15.713420685211922 1.4880772760714573 a36.78372464312547,36.78372464312547 0 0,0 -0.0649278413397068,0.6281179671721279 l -15.685560451390549 -1.7575997655265165" fill="#ff9e0e" stroke="none" /><path d="M 120.82617615685814 102.69636545807757 l 20.08123158099944 2.59991746842268 a41.248837809917354,41.248837809917354 0 0,0 -0.09694553960210454,0.7014496311942803 l -20.033641524842125 -2.944255407817045" fill="#ffdb14" stroke="none" /><path d="M 120.7213421655516 103.40968896794604 l 7.909887809884975 1.3015690290512454 a29.016258921863262,29.016258921863262 0 0,0 -0.08509388578073968,0.4907989203631418 l -7.886379106612002 -1.4371609823349754" fill="#ff2c04" stroke="none" /><path d="M 120.65975698304385 103.76489593502545 l 7.439637085073136 1.3557497042508648 a28.562159560480843,28.562159560480843 0 0,0 -0.09204320180411008,0.4816089255940695 l -7.4152675909868675 -1.4832611948782488" fill="#ff2503" stroke="none" /><path d="M 120.592083275326 104.11899336999214 l 36.43307708909518 7.287635785652172 a58.154794327573256,58.154794327573256 0 0,0 -0.2042127457263579,0.9772319141467244 l -36.30260663254445 -7.911984151084305" fill="#55ff2b" stroke="none" /><path d="M 120.35273937422433 105.17358676015961 l 11.704306486254776 2.9751889394714817 a33.07652845604808,33.07652845604808 0 0,0 -0.1446082500346137,0.5491010794021954 l -11.651508755415431 -3.17567052324648" fill="#ff6809" stroke="none" /><path d="M 120.16314734710363 105.8691983318838 l 19.965265219213673 5.811597728420061 a41.793904958677686,41.793904958677686 0 0,0 -0.2064294106539333,0.687136370539743 l -19.862559488556112 -6.153471702550528" fill="#ffe215" stroke="none" /><path d="M 119.94978838288452 106.5578916946017 l 11.399511052978307 3.747245706174132 a32.999612603305785,32.999612603305785 0 0,0 -0.181520778006959,0.5366339260490627 l -11.333504853398983 -3.942381306697355" fill="#ff6709" stroke="none" /><path d="M 119.83427380445688 106.89939002012753 l 16.14184469986168 5.614971504711648 a38.090554564237415,38.090554564237415 0 0,0 -0.22012682023084545,0.6157338936487498 l -16.04307770958689 -5.89124035474132" fill="#ffb010" stroke="none" /><path d="M 119.31412917781788 108.2440532568976 l 5.727306806814422 2.4446467091147817 a27.22722577009767,27.22722577009767 0 0,0 -0.18717566132745872,0.4282945431733261 l -5.684497263469997 -2.5426033220639526" fill="#ff1001" stroke="none" /><path d="M 119.0197475246899 108.90220220490707 l 18.83710579061782 8.816716651239554 a41.79834241172051,41.79834241172051 0 0,0 -0.3097470981979823,0.64725230412826 l -18.682979434459924 -9.138781457432918" fill="#ffe215" stroke="none" /><path d="M 118.8641267826498 109.22738970284198 l 11.004369225246933 5.382788424042346 a33.250328700225396,33.250328700225396 0 0,0 -0.2552043269352741,0.5105796084717626 l -10.910344985099925 -5.570899888677855" fill="#ff6b09" stroke="none" /><path d="M 118.5362547648365 109.86951160357373 l 9.406304995299436 5.008327597761096 a31.6565434823441,31.6565434823441 0 0,0 -0.2595152940757033,0.4774789112825497 l -9.318944351608394 -5.1690613425182494" fill="#ff5307" stroke="none" /><line stroke="#e1ed5e" stroke-width="0.3" x1="174.33088141563837" x2="178.70328620479359" y1="141.23008692659167" y2="143.65538615756765" /><path d="M 175.20536237346943 141.71514677278685 a86.0,86.0 0 0,1 -30.301960400862466,31.631185727798858" fill="none" id="id65" stroke="none" /><text fill="#e1ed5e" style="font-size:6.75px; font-family:Arial;" text-anchor="middle"><textPath startOffset="22.145653131862474" xlink:href="#id65">May</textPath></text><path d="M 118.36410011445183 110.18625677009912 l 8.1863650366985 4.540838688411928 a30.361398854244925,30.361398854244925 0 0,0 -0.25672244894247864,0.4536039686114094 l -8.107209222734642 -4.680699427122461" fill="#ff4006" stroke="none" /><path d="M 118.00360718960297 110.81064883170644 l 7.788022648967883 4.676483832639355 a30.084205954169796,30.084205954169796 0 0,0 -0.2696576821188674,0.44046555817961036 l -7.70659700239361 -4.809486506943522" fill="#ff3c05" stroke="none" /><path d="M 117.81537515405839 111.11811171558189 l 4.402980959374535 2.7477857617134958 a26.190045078888055,26.190045078888055 0 0,0 -0.2413004942040601,0.3793644558355661 l -4.355162773544585 -2.8229638922277336" fill="#ff0000" stroke="none" /><path d="M 117.62189284568427 111.42229804090321 l 52.865678537052815 34.26689412270965 a84.0,84.0 0 0,0 -0.7947022443170932,1.2032804866437559 l -52.269651853815 -35.169354487692466" fill="#4dd2ff" stroke="none" /><path d="M 116.79662413953412 112.60449989151573 l 6.06519346218085 4.551434246608135 a28.58301558978212,28.58301558978212 0 0,0 -0.297873163955948,0.38992553347535946 l -5.986168320870598 -4.6548806933243725" fill="#ff2503" stroke="none" /><path d="M 116.57777611688842 112.89097897827486 l 9.151483555961303 7.116248965368944 a32.59269815927874,32.59269815927874 0 0,0 -0.34724193781893503,0.4387288449350822 l -9.027975187500806 -7.272297754218709" fill="#ff6109" stroke="none" /><path d="M 116.1254893667686 113.45245675266167 l 9.341251563611596 7.792804287489348 a33.16498168670173,33.16498168670173 0 0,0 -0.3684557394616429,0.43403993461703644 l -9.20610126064284 -7.952011004555942" fill="#ff6a09" stroke="none" /><path d="M 115.6541949942343 113.99807769240083 l 11.409310389474978 10.202275703567633 a36.305515120210366,36.305515120210366 0 0,0 -0.419419116203949,0.46101508012299536 l -11.23249357242915 -10.3966283592483" fill="#ff970d" stroke="none" /><path d="M 115.41159269507618 114.26474011684316 l 8.022697946015453 7.425689446906066 a31.93181348610068,31.93181348610068 0 0,0 -0.3757981629196001,0.3990846261374572 l -7.8940439493595935 -7.562315532988021" fill="#ff5808" stroke="none" /><path d="M 114.91283532996324 114.78537596483092 l 8.656846288403369 8.582856593784326 a33.190423084147255,33.190423084147255 0 0,0 -0.4046198325641252,0.40116156417736404 l -8.50823453570928 -8.730198168190352" fill="#ff6a09" stroke="none" /><path d="M 114.65682725009322 115.03919595460226 l 7.656636808535029 7.856383878444527 a31.970271412471824,31.970271412471824 0 0,0 -0.3963210134771461,0.37966656576708374 l -7.520643309192571 -7.986662574517191" fill="#ff5808" stroke="none" /><path d="M 114.39649973595853 115.28858382429668 l 9.411502136505812 9.994689123434782 a34.72844430879038,34.72844430879038 0 0,0 -0.43752916441365824,0.40497046265012965 l -9.238543200778185 -10.154777332217291" fill="#ff800b" stroke="none" /><path d="M 113.31354834802062 116.24036423190432 l 7.773478049698317 9.482379270781193 a33.26142233283245,33.26142233283245 0 0,0 -0.44467231889672904,0.3581965434013452 l -7.609554960446336 -9.614424107975942" fill="#ff6b09" stroke="none" /><path d="M 113.03279911837588 116.46651593811092 l 9.451931075485339 11.942206143648509 a36.23007841848234,36.23007841848234 0 0,0 -0.49098666776122973,0.38179420255744473 l -9.245534463088878 -12.102701397826745" fill="#ff960d" stroke="none" /><path d="M 112.16784306229584 117.11559508785304 l 4.743007627562786 6.671634211285276 a29.185769628099173,29.185769628099173 0 0,0 -0.4108312747589498,0.28679213654646096 l -4.627781261630078 -6.752071163636859" fill="#ff2e04" stroke="none" /><path d="M 111.5731344415666 117.5232005979908 l 10.48470223287522 15.875175507941684 a40.02498826070624,40.02498826070624 0 0,0 -0.5765778103622933,0.3737307706613619 l -10.210638790255917 -16.05282012030694" fill="#ffcb12" stroke="none" /><path d="M 111.27062007382361 117.71928675628689 l 5.658120129191191 8.895504631862268 a31.5425009391435,31.5425009391435 0 0,0 -0.459372774041628,0.2866825860654456 l -5.504583226359848 -8.99132301476926" fill="#ff5207" stroke="none" /><path d="M 110.96478420261333 117.91015095944535 l 16.504945311599048 26.959587771702296 a52.61064049586777,52.61064049586777 0 0,0 -0.7742964587526452,0.4649427761367068 l -16.039716096288966 -27.238944548374924" fill="#94ff23" stroke="none" /><line stroke="#e1ed5e" stroke-width="0.3" x1="143.1302829299769" x2="145.66735839644613" y1="173.24464959558577" y2="177.55315839532614" /><path d="M 143.63769802327073 174.10635135553383 a86.0,86.0 0 0,1 -40.68552437913181,11.842963189579606" fill="none" id="id66" stroke="none" /><text fill="#e1ed5e" style="font-size:6.75px; font-family:Arial;" text-anchor="middle"><textPath startOffset="21.407464694133747" xlink:href="#id66">June</textPath></text><line stroke="#e1ed5e" stroke-width="0.3" x1="101.45913802915013" x2="101.54496967792366" y1="184.9874750549273" y2="189.98673829345242" /><path d="M 101.47630435890484 185.9873277026323 a86.0,86.0 0 0,1 -42.54439059252881,-10.42667462771756" fill="none" id="id67" stroke="none" /><text fill="#e1ed5e" style="font-size:6.75px; font-family:Arial;" text-anchor="middle"><textPath startOffset="22.145653131862474" xlink:href="#id67">July</textPath></text><line stroke="#e1ed5e" stroke-width="0.3" x1="58.13341422392154" x2="55.67067388415222" y1="173.97424548756322" y2="178.32567169271397" /><path d="M 57.64086615596768 174.84453072859336 a86.0,86.0 0 0,1 -31.369924170532247,-30.572349798747897" fill="none" id="id68" stroke="none" /><text fill="#e1ed5e" style="font-size:6.75px; font-family:Arial;" text-anchor="middle"><textPath startOffset="22.145653131862474" xlink:href="#id68">August</textPath></text><line stroke="#e1ed5e" stroke-width="0.3" x1="26.387840678322732" x2="22.057713659400548" y1="142.50000000000003" y2="145.00000000000006" /><path d="M 25.521815274538298 143.00000000000003 a86.0,86.0 0 0,1 -11.493303480769221,-40.785679425670985" fill="none" id="id69" stroke="none" /><text fill="#e1ed5e" style="font-size:6.75px; font-family:Arial;" text-anchor="middle"><textPath startOffset="21.40746469413373" xlink:href="#id69">September</textPath></text><line stroke="#e1ed5e" stroke-width="0.3" x1="15.003131293944662" x2="10.003315487706104" y1="100.72959589197737" y2="100.7725132973878" /><path d="M 14.003168132696942 100.73817937305945 a86.0,86.0 0 0,1 10.791469493833604,-42.45332614584628" fill="none" id="id70" stroke="none" /><text fill="#e1ed5e" style="font-size:6.75px; font-family:Arial;" text-anchor="middle"><textPath startOffset="22.145653131862435" xlink:href="#id70">October</textPath></text><line stroke="#e1ed5e" stroke-width="0.3" x1="26.387840678322718" x2="22.05771365940052" y1="57.49999999999999" y2="54.99999999999999" /><path d="M 25.521815274538284 56.99999999999999 a86.0,86.0 0 0,1 29.574782752854787,-30.34633250058573" fill="none" id="id71" stroke="none" /><text fill="#e1ed5e" style="font-size:6.75px; font-family:Arial;" text-anchor="middle"><textPath startOffset="21.40746469413373" xlink:href="#id71">November</textPath></text><line stroke="#e1ed5e" stroke-width="0.3" x1="56.869717070023135" x2="54.33264160355391" y1="26.7553504044142" y2="22.446841604673864" /><path d="M 56.362301976729285 25.89364864446614 a86.0,86.0 0 0,1 42.16139366436587,-11.88097634709845" fill="none" id="id72" stroke="none" /><text fill="#e1ed5e" style="font-size:6.75px; font-family:Arial;" text-anchor="middle"><textPath startOffset="22.145653131862474" xlink:href="#id72">December</textPath></text></svg>