<?xml version="1.0" encoding="utf-8" ?>
<svg baseProfile="full" height="200mm" version="1.1" viewBox="0,0,200,200" width="200mm" xmlns="http://www.w3.org/2000/svg" xmlns:ev="http://www.w3.org/2001/xml-events" xmlns:xlink="http://www.w3.org/1999/xlink"><defs /><rect fill="#1a1a1a" height="200" width="200" x="0" y="0" /><text alignment-baseline="middle" fill="#e1ed5e" style="dominant-baseline: central; font-size:9.0px; font-family:Arial;" text-anchor="middle" x="100.0" y="100.0">2022</text><line stroke="#e1ed5e" stroke-width="0.3" x1="100.0" x2="100.0" y1="15.0" y2="10.0" /><path d="M 100.0 14.0 a86.0,86.0 0 0,1 42.46469731375804,11.215312516191453" fill="none" id="id37" stroke="none" /><text fill="#e1ed5e" style="font-size:6.75px; font-family:Arial;" text-anchor="middle"><textPath startOffset="22.20632615414155" xlink:href="#id37">January</textPath></text><line stroke="#e1ed5e" stroke-width="0.3" x1="143.23703022742887" x2="145.7803849466894" y1="26.81831364943548" y2="22.513508569990506" /><path d="M 143.74570117128098 25.957352633546492 a86.0,86.0 0 0,1 28.547481713284135,27.462654790039103" fill="none" id="id38" stroke="none" /><text fill="#e1ed5e" style="font-size:6.75px; font-family:Arial;" text-anchor="middle"><textPath startOffset="19.985693538727396" xlink:href="#id38">February</textPath></text><path d="M 115.68641384162765 86.03803664274999 l 3.216458916438963 -2.8628647685072885 a25.30599612678646,25.30599612678646 0 0,0 0.28681109421155415,0.32787466099462154 l -3.2652618742283654 2.8070745513097193" fill="#ff0701" stroke="none" /><path d="M 117.45458315368197 88.32363383020206 l 6.011097772522271 -4.021166134787985 a28.23208638737038,28.23208638737038 0 0,0 0.2667305204819052,0.4062488820231018 l -6.079424928362101 3.9170991887872093" fill="#ff3304" stroke="none" /><line stroke="#e1ed5e" stroke-width="0.3" x1="172.23445277983987" x2="176.4835382374775" y1="55.19839476539836" y2="52.563006222186495" /><path d="M 173.08426987136738 54.67131705675599 a86.0,86.0 0 0,1 12.851231095245387,41.99856678651699" fill="none" id="id39" stroke="none" /><text fill="#e1ed5e" style="font-size:6.75px; font-family:Arial;" text-anchor="middle"><textPath startOffset="22.20632615414155" xlink:href="#id39">March</textPath></text><path d="M 118.56541770881063 90.18545643968196 l 8.51197527536306 -4.499826151757126 a30.628196014022013,30.628196014022013 0 0,0 0.24238653604063728,0.4682136375456212 l -8.588171244563814 4.35263979195116" fill="#ff5708" stroke="none" /><path d="M 118.73160827565052 90.50648371742162 l 9.39266656726476 -4.7603725041095535 a31.530115460985954,31.530115460985954 0 0,0 0.24119034948715856,0.48622502693149117 l -9.473216929705327 4.597987888679112" fill="#ff6409" stroke="none" /><path d="M 119.97218684219823 93.5106431181261 l 3.6342887978240714 -1.180852012211652 a24.821317382884317,24.821317382884317 0 0,0 0.12853248338274142,0.40748309699173324 l -3.654076764975019 1.1181187487934994" fill="#ff0000" stroke="none" /><path d="M 120.37134235888165 94.90015583598534 l 6.099217755502194 -1.5269028190423084 a27.28743902140073,27.28743902140073 0 0,0 0.1101466568522755,0.4566290029673152 l -6.1245972126152886 1.421688584415587" fill="#ff2503" stroke="none" /><path d="M 120.45610955862082 95.25157060432595 l 7.7001885207609675 -1.787426950341307 a28.90492241315912,28.90492241315912 0 0,0 0.10833236367553484,0.48563274451557503 l -7.72981527143854 1.654616036275768" fill="#ff3d05" stroke="none" /><path d="M 120.6074358757038 95.95851677861258 l 12.66943318816251 -2.484700278253279 a33.91078126149094,33.91078126149094 0 0,0 0.1074071936790085,0.5737735234561648 l -12.710326105751378 2.2662486773345516" fill="#ff850c" stroke="none" /><path d="M 120.67395015179393 96.31383870115 l 12.778490896166806 -2.278402446233514 a33.980021082048395,33.980021082048395 0 0,0 0.09771381993564189,0.5767124965223566 l -12.815816577622671 2.0581041613953195" fill="#ff860c" stroke="none" /><path d="M 120.78858239683441 97.02765380044208 l 12.933175749713484 -1.8491821642311297 a34.06470472875248,34.06470472875248 0 0,0 0.07799844258437458,0.5811789946331003 l -12.963090191355695 1.626284827533365" fill="#ff870c" stroke="none" /><path d="M 120.83666639777658 97.38593545837742 l 10.289614057559145 -1.2908838074845193 a31.3702718603682,31.3702718603682 0 0,0 0.06260557237378472,0.5363663115198511 l -10.310309982936518 1.1135737576398153" fill="#ff6109" stroke="none" /><path d="M 120.87857604477298 97.74499172005257 l 9.60886393902307 -1.0378134838754944 a30.66474640256907,30.66474640256907 0 0,0 0.052163470558347864,0.5252790297974879 l -9.625304535263647 0.8722589233735716" fill="#ff5708" stroke="none" /><path d="M 120.94382443527127 98.46500227214037 l 8.242398389033532 -0.6040951516941276 a29.264506165273453,29.264506165273453 0 0,0 0.032496713729610265,0.5027097780111222 l -8.251575693767558 0.4621263094299703" fill="#ff4306" stroke="none" /><path d="M 120.96714384426684 98.82574320788733 l 12.888782365573395 -0.7218312778912381 a33.908979481773834,33.908979481773834 0 0,0 0.0276219184484549,0.5830550417436724 l -12.899297892255348 0.4998651295245659" fill="#ff850c" stroke="none" /><path d="M 120.98425023603335 99.18683210126433 l 8.52631450646564 -0.33040614619036857 a29.532713946020152,29.532713946020152 0 0,0 0.015312438714204743,0.5081452941073874 l -8.53073863963549 0.18359070465798208" fill="#ff4706" stroke="none" /><line stroke="#e1ed5e" stroke-width="0.3" x1="184.98032266829074" x2="189.97916517819016" y1="98.17113171792111" y2="98.06355123074" /><path d="M 185.9800911702706 98.14961562048488 a86.0,86.0 0 0,1 -9.607161424134198,41.387399972396054" fill="none" id="id40" stroke="none" /><text fill="#e1ed5e" style="font-size:6.75px; font-family:Arial;" text-anchor="middle"><textPath startOffset="21.466115282336823" xlink:href="#id40">April</textPath></text><path d="M 120.99513854157772 99.54816195383933 l 8.34159556572502 -0.17952014152303133 a29.343527075723777,29.343527075723777 0 0,0 0.006521239619215423,0.5050771951664402 l -8.343449812461952 0.0359066882961284" fill="#ff4406" stroke="none" /><path d="M 120.99824983174949 100.27111621757518 l 25.81143187405513 0.33326100203420445 a46.81358321280612,46.81358321280612 0 0,0 -0.017338719796161587,0.8056621777364309 l -25.80187109157396 -0.7775129955607502" fill="#d0ff1d" stroke="none" /><path d="M 120.9904718944345 100.63252640178507 l 7.050509790835232 0.21245990138648876 a28.05371019537666,28.05371019537666 0 0,0 -0.018699624206939474,0.482554210868819 l -7.04580803377709 -0.33379135926931397" fill="#ff3104" stroke="none" /><path d="M 120.9764740272857 100.99374915477107 l 10.37536627481538 0.49152738694912773 a31.387002672027066,31.387002672027066 0 0,0 -0.030211707557358827,0.5394503335138195 l -10.365368216370491 -0.6700494367983706" fill="#ff6109" stroke="none" /><path d="M 120.95626037817324 101.35467743843564 l 8.459716563566486 0.5468622243384628 a29.47737356899468,29.47737356899468 0 0,0 -0.037090173868082575,0.5060659541496503 l -8.449049831034067 -0.6924013149848833" fill="#ff4606" stroke="none" /><path d="M 120.8583938346157 102.4346265915055 l 18.249113229167612 2.1300669980347515 a39.37300517245606,39.37300517245606 0 0,0 -0.08436789567507452,0.6724951388433598 l -18.20974382424569 -2.443879891165506" fill="#ffd013" stroke="none" /><path d="M 120.81339534386255 102.79330883721812 l 12.861620126690543 1.726122843835811 a33.97693231681907,33.97693231681907 0 0,0 -0.0827839040730835,0.5789904322756602 l -12.830002171600858 -1.9472587480918804" fill="#ff860c" stroke="none" /><path d="M 120.64145759157962 103.86396538481128 l 9.901756744559751 1.8535534683077868 a31.073750398352658,31.073750398352658 0 0,0 -0.10294299513861324,0.5249041143967896 l -9.868383816445473 -2.0237213097725215" fill="#ff5d08" stroke="none" /><path d="M 120.32669344350535 105.2749913415812 l 28.05290983328478 7.280025985929194 a49.98214154389234,49.98214154389234 0 0,0 -0.2232819450852435,0.8309151805845675 l -27.923439811857758 -7.761832099689309" fill="#aaff21" stroke="none" /><path d="M 120.13307415673323 105.97154293290107 l 10.032235883213206 2.9755976073610713 a31.464221802760278,31.464221802760278 0 0,0 -0.1584796328886125,0.517920609850177 l -9.97952947781846 -3.1478451897633053" fill="#ff6309" stroke="none" /><path d="M 120.02730092923936 106.31721596034902 l 10.092447851405229 3.1834630573111755 a31.58262446988454,31.58262446988454 0 0,0 -0.16800113745380943,0.5170543349683098 l -10.036154462935173 -3.3567162922572806" fill="#ff6409" stroke="none" /><path d="M 119.67450827220406 107.3425965602758 l 13.013447949418037 4.856665123657526 a34.89017723629054,34.89017723629054 0 0,0 -0.21483330964994188,0.5608619801898286 l -12.92792036017459 -5.079950670680498" fill="#ff930d" stroke="none" /><path d="M 119.26925614724726 108.34839909993367 l 17.028584548334038 7.377628842033165 a39.55807368911333,39.55807368911333 0 0,0 -0.2760756366665154,0.6224776788434448 l -16.89906782693625 -7.669654857369297" fill="#ffd213" stroke="none" /><path d="M 119.12269723197855 108.67885076344098 l 11.452148490604658 5.197566350865669 a33.576422425416126,33.576422425416126 0 0,0 -0.24338970327888804,0.5242397678982382 l -11.360984170485938 -5.393926186042738" fill="#ff810b" stroke="none" /><path d="M 118.81262510543309 109.33194174019688 l 14.586667461875708 7.235669141067269 a37.28268330350795,37.28268330350795 0 0,0 -0.2901326523522155,0.5724592479827818 l -14.459956139737223 -7.485682600752745" fill="#ffb410" stroke="none" /><path d="M 118.64920377521936 109.65438752849418 l 20.5153585030022 10.620465284268784 a44.1013899443532,44.1013899443532 0 0,0 -0.35480091499497124,0.6711496209546012 l -20.329505079782336 -10.97202992030952" fill="#f1ff19" stroke="none" /><line stroke="#e1ed5e" stroke-width="0.3" x1="174.80103733775053" x2="179.2010983576182" y1="140.37084112569926" y2="142.7455964860345" /><path d="M 175.68104954172406 140.8457921977663 a86.0,86.0 0 0,1 -30.038265399797805,32.042727171017184" fill="none" id="id41" stroke="none" /><text fill="#e1ed5e" style="font-size:6.75px; font-family:Arial;" text-anchor="middle"><textPath startOffset="22.206326154141568" xlink:href="#id41">May</textPath></text><path d="M 118.30583269289576 110.29060199501025 l 24.300002285604194 13.660217275777761 a48.87636359179271,48.87636359179271 0 0,0 -0.41858649653878244,0.7298408394761616 l -24.06126379291303 -14.076477961112237" fill="#b7ff1f" stroke="none" /><path d="M 117.94076556474637 110.91462005526583 l 12.902855395252347 7.849707625852201 a36.10303238300689,36.10303238300689 0 0,0 -0.3275668706750201,0.5281420950903832 l -12.765823884909365 -8.070646052307858" fill="#ffa40f" stroke="none" /><path d="M 117.75023020441432 111.22182372390056 l 7.442234263260866 4.705034247584955 a29.804782683303507,29.804782683303507 0 0,0 -0.27788721416641593,0.43128712745195497 l -7.3601421857173985 -4.832442974958362" fill="#ff4b06" stroke="none" /><path d="M 117.35343817320211 111.8261652097733 l 12.473009681988877 8.500210257474514 a36.09402348442135,36.09402348442135 0 0,0 -0.3543042503784366,0.5104016979298018 l -12.324844524448306 -8.713653217591336" fill="#ffa40f" stroke="none" /><path d="M 117.14729908036423 112.12312394758627 l 12.520096661403889 8.851696290512027 a36.33314539259187,36.33314539259187 0 0,0 -0.36544259587955547,0.5075678031640248 l -12.36587427314873 -9.065897699127182" fill="#ffa70f" stroke="none" /><path d="M 116.71984013943494 112.70617746262583 l 18.820630486667884 14.302664913528892 a44.63857769715393,44.63857769715393 0 0,0 -0.4701785274139058,0.6077691273857939 l -18.571645142035912 -14.624512035027937" fill="#ebff1a" stroke="none" /><path d="M 116.498646956653 112.99209946851258 l 13.764376303588685 10.838958281130441 a38.51973377785404,38.51973377785404 0 0,0 -0.41469627807563864,0.5173973693670637 l -13.575762113458193 -11.074283484075757" fill="#ffc412" stroke="none" /><path d="M 116.0416608686014 113.55231037782055 l 10.019500337584759 8.464670804218613 a34.11644154634374,34.11644154634374 0 0,0 -0.3828473808184088,0.4453379963319005 l -9.872310447195572 -8.635885899712042" fill="#ff880c" stroke="none" /><path d="M 115.80600337817218 113.82643327865902 l 26.882759722973912 23.515918272497796 a56.71667933223838,56.71667933223838 0 0,0 -0.6491119978493566,0.7292842107727955 l -26.47398887547622 -23.975176653011456" fill="#5eff2a" stroke="none" /><path d="M 115.32070863581623 114.36230785411682 l 10.808023258088442 10.131917590563257 a35.81449023116711,35.81449023116711 0 0,0 -0.42549907992277475,0.44613408417612554 l -10.632017626786702 -10.316458791321889" fill="#ffa00e" stroke="none" /><path d="M 115.07121518719521 114.62390073753431 l 10.48257270870712 10.17144940617413 a35.60625597528988,35.60625597528988 0 0,0 -0.43059726245701047,0.43619275349528963 l -10.305934821194576 -10.350382653650085" fill="#ff9d0e" stroke="none" /><path d="M 114.55890576462653 115.13401014063108 l 11.09753867815997 11.53591249277702 a37.00726840389282,37.00726840389282 0 0,0 -0.4628801560373303,0.43768207905590595 l -10.897322687731831 -11.725229208578849" fill="#ffb010" stroke="none" /><path d="M 114.29624159901734 115.38237550388516 l 9.228791168772169 9.929933697731467 a34.55633319442061,34.55633319442061 0 0,0 -0.4391952808744774,0.4011944758592341 l -9.056496338430827 -10.087320940177284" fill="#ff8e0d" stroke="none" /><path d="M 114.0293411484842 115.62618273729858 l 14.27334912889382 15.897964088317458 a42.3652464883681,42.3652464883681 0 0,0 -0.5468297157937859,0.48251364538716457 l -13.997577060193446 -16.14130087547691" fill="#fff717" stroke="none" /><path d="M 113.48314897796784 116.09983520530334 l 9.89545401605398 11.815873220748017 a36.412166303042184,36.412166303042184 0 0,0 -0.4839868237894045,0.3982882063234742 l -9.690597063719885 -11.984456545928671" fill="#ffa80f" stroke="none" /><path d="M 112.34349029814194 116.9893568818739 l 7.95005742034742 10.942315300073883 a34.52544554212733,34.52544554212733 0 0,0 -0.4838045293756964,0.34518168590259773 l -7.7605255631228385 -11.0775412478207" fill="#ff8e0d" stroke="none" /><path d="M 111.7513745106137 117.40417183066458 l 9.454566014716786 14.002522969195978 a37.89554580442723,37.89554580442723 0 0,0 -0.5437565121872631,0.3603721661413668 l -9.212134803789558 -14.163193156428662" fill="#ffbc11" stroke="none" /><path d="M 111.1453310114006 117.79835938074945 l 7.943777097945052 12.685688696474651 a35.96764150712132,35.96764150712132 0 0,0 -0.527561033979591,0.3240710759109376 l -7.724236864033152 -12.820548239213966" fill="#ffa20f" stroke="none" /><line stroke="#e1ed5e" stroke-width="0.3" x1="143.8653032363475" x2="146.44561519142675" y1="172.8068346515853" y2="177.08958963109032" /><path d="M 144.38136562736335 173.6633856474863 a86.0,86.0 0 0,1 -40.68145358897372,12.25698825130547" fill="none" id="id42" stroke="none" /><text fill="#e1ed5e" style="font-size:6.75px; font-family:Arial;" text-anchor="middle"><textPath startOffset="21.466115282336833" xlink:href="#id42">June</textPath></text><path d="M 110.5260780823613 118.17145234162733 l 9.358463459198378 16.155767742655357 a39.67055622288138,39.67055622288138 0 0,0 -0.5938327745516505,0.3371937474738347 l -9.078981917725528 -16.31446465592382" fill="#ffd413" stroke="none" /><path d="M 109.89434966115114 118.52300852407294 l 10.342946226696673 19.362816929075567 a42.952111881940525,42.952111881940525 0 0,0 -0.6551405805469216,0.3427385878861099 l -10.008114743623256 -19.537984935906394" fill="#fffe18" stroke="none" /><path d="M 109.57404056367764 118.69057910512821 l 10.790011543022466 21.064415065799626 a44.667148775525206,44.667148775525206 0 0,0 -0.6873340277030352,0.3446435503106558 l -10.425823607636671 -21.247026457019583" fill="#eaff1a" stroke="none" /><path d="M 108.92500713936063 119.00905698771935 l 7.623329646270489 16.236660141485036 a38.93723187801829,38.93723187801829 0 0,0 -0.6091488965787655,0.27963038155263853 l -7.342712753924304 -16.36547759337175" fill="#ffca12" stroke="none" /><path d="M 108.59647513512805 119.15986991738527 l 6.614626523642947 14.742715095772503 a37.158617900129926,37.158617900129926 0 0,0 -0.5858309592869204,0.25681107656647784 l -6.359874889698273 -14.854390725633435" fill="#ffb210" stroke="none" /><path d="M 107.59598834532513 119.57807347666477 l 5.220344992062118 13.45503615616152 a35.4322555340377,35.4322555340377 0 0,0 -0.5705095591280809,0.21571789869979677 l -4.987965212173762 -13.54290230496795" fill="#ff9a0e" stroke="none" /><path d="M 107.2578585660854 119.70592522655815 l 7.093728089601354 19.260292004645073 a41.52510234599073,41.52510234599073 0 0,0 -0.6728657176756646,0.2412657069429357 l -6.761142811295955 -19.37954525262797" fill="#ffec16" stroke="none" /><path d="M 106.2309692047433 120.05430185196036 l 7.8331987900436 25.211059121005 a47.39993381217366,47.39993381217366 0 0,0 -0.7812525382032982,0.23538498104836036 l -7.398071277400056 -25.342159471159086" fill="#c9ff1d" stroke="none" /><path d="M 105.18746579009965 120.34920634021253 l 4.783969382579094 18.76638498072697 a40.366557987890076,40.366557987890076 0 0,0 -0.6747879803748336,0.16584646806613804 l -4.46022811746105 -18.845952707107134" fill="#ffdd14" stroke="none" /><path d="M 104.83641907484287 120.43548508189849 l 6.564431430291958 27.736914127780658 a49.50312553624397,49.50312553624397 0 0,0 -0.8308978235048414,0.18910963945863973 l -6.086013457394255 -27.84580050081698" fill="#b0ff20" stroke="none" /><path d="M 103.7750983002368 120.6578951692458 l 2.2418955181621074 12.26798321826206 a33.47114701051651,33.47114701051651 0 0,0 -0.5676563539907464,0.09869433340112176 l -2.030390192699311 -12.304756130184188" fill="#ff7f0b" stroke="none" /><path d="M 102.70371172650421 120.8252237178851 l 3.4434164484822496 26.522767642172514 a47.745360723653576,47.745360723653576 0 0,0 -0.8159286019161416,0.09879759076494107 l -2.9863604235147276 -26.578110761662806" fill="#c4ff1e" stroke="none" /><path d="M 102.34483914955558 120.86867818915974 l 2.885624252858091 25.68157560792313 a46.84318387958719,46.84318387958719 0 0,0 -0.8020610473480694,0.08313690698739293 l -2.4431306089044185 -25.72744188336628" fill="#cfff1d" stroke="none" /><path d="M 101.26447882468166 120.96189622390904 l 2.376388218944304 39.39457289509871 a60.4661829235408,60.4661829235408 0 0,0 -1.0394768329948256,0.05372907893834854 l -1.6979233175359987 -39.429641780799265" fill="#37ff2e" stroke="none" /><line stroke="#e1ed5e" stroke-width="0.3" x1="102.19456741930631" x2="102.32365962044197" y1="184.97166512339345" y2="189.96999836594603" /><path d="M 102.22038585953345 185.97133177190398 a86.0,86.0 0 0,1 -42.740103519485714,-10.115201625700543" fill="none" id="id43" stroke="none" /><text fill="#e1ed5e" style="font-size:6.75px; font-family:Arial;" text-anchor="middle"><textPath startOffset="22.20632615414155" xlink:href="#id43">July</textPath></text><path d="M 96.22490169976321 120.6578951692458 l -2.8093679466927792 15.3732761160096 a36.6278650748903,36.6278650748903 0 0,0 -0.6192418243183049,-0.11867916943856345 l 3.0735773855827793 -15.322639748222569" fill="#ffab0f" stroke="none" /><path d="M 90.42595943632237 118.69057910512821 l -7.371398671928691 14.390550058438139 a37.168656387125246,37.168656387125246 0 0,0 -0.566926608650614,-0.2965892070397496 l 7.618016183105801 -14.261531432453673" fill="#ffb210" stroke="none" /><line stroke="#e1ed5e" stroke-width="0.3" x1="58.666819895761336" x2="56.23545636021788" y1="174.27360380694188" y2="178.64263932499728" /><path d="M 58.180547188652646 175.14741091055294 a86.0,86.0 0 0,1 -31.652253787137756,-30.449443065178592" fill="none" id="id44" stroke="none" /><text fill="#e1ed5e" style="font-size:6.75px; font-family:Arial;" text-anchor="middle"><textPath startOffset="22.20632615414155" xlink:href="#id44">August</textPath></text><path d="M 87.65650970185807 116.9893568818739 l -6.15525407900383 8.471980430247319 a31.4719437158336,31.4719437158336 0 0,0 -0.4355342787601077,-0.32219784727267825 l 6.300173328182502 -8.364772634234875" fill="#ff6309" stroke="none" /><path d="M 87.07902340077011 116.55440617244103 l -7.509547562151392 9.621261950317905 a33.20499840658937,33.20499840658937 0 0,0 -0.4475440953960564,-0.3555560965312202 l 7.674049150264806 -9.490571939781553" fill="#ff7b0b" stroke="none" /><path d="M 86.79598089348748 116.32954008644616 l -9.965242473762682 12.324113221420783 a36.848969185889736,36.848969185889736 0 0,0 -0.4897927634341965,-0.403066099384772 l 10.175905365741567 -12.15075200317883" fill="#ffae10" stroke="none" /><path d="M 86.24171649860922 115.8653595955263 l -10.661463970839703 12.29426328473468 a37.27315961071753,37.27315961071753 0 0,0 -0.4811035687532524,-0.42451796247197315 l 10.871509892499542 -12.108922180490419" fill="#ffb410" stroke="none" /><path d="M 85.97065885151581 115.62618273729859 l -8.644829597697472 9.628797646069325 a33.940124531169566,33.940124531169566 0 0,0 -0.4313635489771532,-0.394040374459597 l 8.80929269614148 -9.47856450502315" fill="#ff860c" stroke="none" /><path d="M 85.44109423537348 115.13401014063109 l -9.929771177317711 10.322015961996142 a35.322861765498985,35.322861765498985 0 0,0 -0.43455538187332854,-0.42530390294698656 l 10.105976511566833 -10.149561956126584" fill="#ff990e" stroke="none" /><path d="M 85.18274418774928 114.88116024355367 l -10.29903344447717 10.343451512409496 a35.59647488539701,35.59647488539701 0 0,0 -0.4304789767677063,-0.43607293071651954 l 10.475553046300409 -10.164638087712312" fill="#ff9d0e" stroke="none" /><path d="M 84.43433777217949 114.09645910891817 l -16.302487020356512 14.763736890383639 a42.994067609638904,42.994067609638904 0 0,0 -0.4920592222665587,-0.552833752500484 l 16.55420509227141 -14.48092896814229" fill="#ffff18" stroke="none" /><path d="M 83.72743513129214 113.27417163493432 l -9.137137121569578 7.453522378446995 a32.79161866006423,32.79161866006423 0 0,0 -0.3530284577984812,-0.4404572817104707 l 9.264083491422921 -7.295137263158265" fill="#ff760a" stroke="none" /><path d="M 83.28015986056508 112.70617746262583 l -11.09027123508519 8.42800847654573 a34.929301595862036,34.929301595862036 0 0,0 -0.35966990153878814,-0.481836609526486 l 11.233702403319063 -8.235858987509936" fill="#ff940d" stroke="none" /><path d="M 82.85270091963577 112.12312394758628 l -18.969302067735562 13.411278306197142 a44.23137548108744,44.23137548108744 0 0,0 -0.4341816960305905,-0.6254711159331451 l 19.197344670928285 -13.082765928076983" fill="#f0ff19" stroke="none" /><path d="M 82.6465618267979 111.8261652097733 l -12.288810463274963 8.374680643672349 a35.8711175937048,35.8711175937048 0 0,0 -0.3433325353229133,-0.5132355563376387 l 12.431146104008606 -8.161908173128888" fill="#ffa10e" stroke="none" /><path d="M 82.05923443525364 110.91462005526583 l -18.443237181389485 11.22030861489962 a42.58815237908465,42.58815237908465 0 0,0 -0.3756257280611581,-0.629570326182013 l 18.633643785148873 -10.901176194831496" fill="#fffa17" stroke="none" /><line stroke="#e1ed5e" stroke-width="0.3" x1="26.63291911575756" x2="22.317208475507996" y1="142.92168965132927" y2="145.44649492493687" /><path d="M 25.769776987707644 143.4266507060508 a86.0,86.0 0 0,1 -11.730757126820373,-40.83630448921669" fill="none" id="id45" stroke="none" /><text fill="#e1ed5e" style="font-size:6.75px; font-family:Arial;" text-anchor="middle"><textPath startOffset="21.46611528233685" xlink:href="#id45">September</textPath></text><path d="M 81.87401531095188 110.60418214915194 l -11.657496906565397 6.8199451075938455 a34.50588336234158,34.50588336234158 0 0,0 -0.2955149639864777,-0.515255248740874 l 11.773163866704254 -6.618270012994664" fill="#ff8e0d" stroke="none" /><path d="M 81.51974371655577 109.97397251340807 l -39.232433858812904 21.17412285523625 a65.5816929375138,65.5816929375138 0 0,0 -0.5276125013408884,-0.9980440165743644 l 39.59109886837867 -20.49566382357576" fill="#35ff66" stroke="none" /><path d="M 81.02952815118164 109.00673069616217 l -14.047301201219133 6.669325883696284 a36.5501311499522,36.5501311499522 0 0,0 -0.26494560565981234,-0.5706692639236368 l 14.160021423718772 -6.42653655249382" fill="#ffaa0f" stroke="none" /><path d="M 80.87730276802145 108.67885076344099 l -12.929255322118992 5.86795241601417 a35.19853896501851,35.19853896501851 0 0,0 -0.2456504614169948,-0.5538769406674776 l 13.028346868267267 -5.644527138853996" fill="#ff970e" stroke="none" /><path d="M 80.73074385275274 108.34839909993369 l -14.311767282359657 6.200568625249208 a36.59723481969946,36.59723481969946 0 0,0 -0.24546117216330576,-0.580197702935972 l 14.416379435715271 -5.953296396647077" fill="#ffaa0f" stroke="none" /><path d="M 80.45479744820244 107.68017299344265 l -50.61207513921584 19.887718819805546 a75.37925624494397,75.37925624494397 0 0,0 -0.4641413824979981,-1.211726688473219 l 50.946910801307354 -19.013568564499167" fill="#42ffd5" stroke="none" /><path d="M 80.20201598880116 107.00284435728193 l -12.498165966131257 4.420789054218229 a34.256980364278185,34.256980364278185 0 0,0 -0.19185404738270934,-0.5576176665830593 l 12.572410844457194 -4.204998684545872" fill="#ff8a0c" stroke="none" /><path d="M 79.97269907076064 106.31721596034903 l -15.110933133161522 4.766444979373488 a36.84485083225063,36.84485083225063 0 0,0 -0.18558089471701608,-0.6064891015739179 l 15.190740800384669 -4.505628905247523" fill="#ffae10" stroke="none" /><path d="M 79.86692584326677 105.97154293290107 l -15.95696533960288 4.732893887066191 a37.6440688353394,37.6440688353394 0 0,0 -0.1789121546349149,-0.6228166813537659 l 16.0360701311239 -4.45751973020783" fill="#ffb911" stroke="none" /><path d="M 79.76711848015287 105.62410040840567 l -17.200652432219698 4.781236734569767 a38.85280562841664,38.85280562841664 0 0,0 -0.17356459216766099,-0.6458984150689858 l 17.280405100729137 -4.484447386325242" fill="#ffc912" stroke="none" /><path d="M 79.67330655649465 105.27499134158121 l -8.258637931327865 2.143203650022479 a29.532199151815263,29.532199151815263 0 0,0 -0.12345680711973568,-0.4931485754244557 l 8.294306052742659 -2.000727235200632" fill="#ff4706" stroke="none" /><path d="M 79.58551787078972 104.9243191809786 l -23.159900435312988 5.586560620118862 a44.82416100801608,44.82416100801608 0 0,0 -0.17447150254442428,-0.7516186666179232 l 23.252632503787968 -5.187073296152364" fill="#e8ff1a" stroke="none" /><path d="M 79.4281124754447 104.21870165774334 l -13.830160307336223 2.8361675682784364 a35.11797367195352,35.11797367195352 0 0,0 -0.11634094200555178,-0.593219956824499 l 13.876931182317442 -2.597683884385982" fill="#ff960d" stroke="none" /><path d="M 79.29508885075956 103.50808413554451 l -14.512166783004012 2.4588321918831326 a35.71899590616037,35.71899590616037 0 0,0 -0.09749286577701667,-0.6070881682577004 l 14.55234140314232 -2.2086647939322184" fill="#ff9e0e" stroke="none" /><path d="M 79.18660465613746 102.79330883721812 l -38.55271653415042 5.174054593901863 a59.898364915549244,59.898364915549244 0 0,0 -0.12834933427529807,-1.0230704782105475 l 38.63606737767257 -4.509666361403907" fill="#3dff2e" stroke="none" /><path d="M 79.1416061653843 102.43462659150553 l -23.203320516290184 2.7083303531470966 a44.36084622361679,44.36084622361679 0 0,0 -0.08199933113650275,-0.7592119665272118 l 23.24650214892774 -2.3085220647351026" fill="#eeff19" stroke="none" /><path d="M 79.07016306316243 101.71520430193888 l -14.50127341123008 1.188382241753476 a35.54988600985463,35.54988600985463 0 0,0 -0.04473096797480759,-0.6103185190966942 l 14.519580937869224 -0.9385905861600212" fill="#ff9c0e" stroke="none" /><path d="M 79.04373962182676 101.35467743843564 l -16.817459315815654 1.0871325463522752 a37.85256048831907,37.85256048831907 0 0,0 -0.03643516074854124,-0.6505742709218111 l 16.833680827451726 -0.7974865590950264" fill="#ffbb11" stroke="none" /><path d="M 79.0235259727143 100.99374915477108 l -13.28120930494779 0.6291901348130176 a34.29610472384968,34.29610472384968 0 0,0 -0.02286058655455954,-0.58993016024025 l 13.29007202435355 -0.4004827275587707" fill="#ff8b0c" stroke="none" /><line stroke="#e1ed5e" stroke-width="0.3" x1="15.007084014347285" x2="10.007500721073583" y1="101.09737516637583" y2="101.16192664675087" /><path d="M 14.007167355692545 101.11028546245083 a86.0,86.0 0 0,1 10.666146001902534,-42.60595125391555" fill="none" id="id46" stroke="none" /><text fill="#e1ed5e" style="font-size:6.75px; font-family:Arial;" text-anchor="middle"><textPath startOffset="22.20632615414155" xlink:href="#id46">October</textPath></text><path d="M 79.00175016825051 100.2711162175752 l -41.646468778651354 0.5377130561405017 a62.6499399406761,62.6499399406761 0 0,0 -0.004641175303723011,-1.078445689507781 l 41.64955425124458 0.17924211157095468" fill="#31ff42" stroke="none" /><path d="M 79.00019446554 99.90962569577889 l -17.069902966615814 -0.07346166140436168 a38.070061039884294,38.070061039884294 0 0,0 0.008460604947679739,-0.6552831771115627 l 17.06610935455042 0.36728109657639635" fill="#ffbe11" stroke="none" /><path d="M 79.00486145842228 99.54816195383935 l -25.170954405992948 -0.5417061114543119 a46.17678278135955,46.17678278135955 0 0,0 0.023942234284702418,-0.7945261959417478 l 25.1579004772526 0.9749024548210541" fill="#d8ff1c" stroke="none" /><path d="M 79.03285615573316 98.82574320788736 l -23.788171201638423 -1.3322473395965329 a44.8254479935283,44.8254479935283 0 0,0 0.049776331198642526,-0.7700178121173026 l 23.76171427943537 1.7415242159668471" fill="#e8ff1a" stroke="none" /><path d="M 79.05617556472873 98.46500227214037 l -32.7988823648825 -2.403868981141884 a53.886855587968526,53.886855587968526 0 0,0 0.07576367745614233,-0.9245087673228247 l 32.75264420360686 2.9680916656724867" fill="#7dff26" stroke="none" /><path d="M 79.12142395522702 97.74499172005258 l -14.487765371788463 -1.5647633632322158 a35.57202216066482,35.57202216066482 0 0,0 0.0709909948429512,-0.6082074903444517 l 14.458684023941922 1.8139145919015291" fill="#ff9c0e" stroke="none" /><path d="M 79.16333360222342 97.38593545837743 l -12.941892396255856 -1.6236254575807334 a34.043340769249625,34.043340769249625 0 0,0 0.07794952522014675,-0.5808145034506919 l 12.912026871977876 1.8461583030960846" fill="#ff870c" stroke="none" /><path d="M 79.46518482838121 95.60439243477599 l -15.415080469514292 -3.29969584649504 a36.76428553918564,36.76428553918564 0 0,0 0.13778836332351102,-0.6176782151963545 l 15.355997719188743 3.5645522312413536" fill="#ffad10" stroke="none" /><path d="M 79.54389044137918 95.25157060432595 l -25.681837446012977 -5.961465522762502 a47.364670409138824,47.364670409138824 0 0,0 0.19118907034057842,-0.7926021275884069 l 25.575415575411583 6.4026528820103055" fill="#c9ff1d" stroke="none" /><path d="M 79.62865764111835 94.90015583598534 l -45.739763562519734 -11.450677238558383 a68.15128821121272,68.15128821121272 0 0,0 0.2946850932067616,-1.1355418737406147 l 45.53588213744267 12.23631553784786" fill="#38ff84" stroke="none" /><path d="M 79.81627453868168 94.20196356495316 l -19.13404111434244 -5.496501017280271 a40.90786409432991,40.90786409432991 0 0,0 0.2002422471739456,-0.6751173117171974 l 19.03659297005679 5.825047715744008" fill="#ffe415" stroke="none" /><path d="M 79.91906864156998 93.8553929516997 l -17.8192237339281 -5.452542304755684 a39.63477802564165,39.63477802564165 0 0,0 0.2052411791596679,-0.6506706251459983 l 17.72272707100023 5.7584630963280965" fill="#ffd313" stroke="none" /><path d="M 80.14247586403 93.16781622104843 l -15.65849481238808 -5.387464898819285 a37.559385188635304,37.559385188635304 0 0,0 0.21560324624607885,-0.6095394105830524 l 15.56343848533219 5.656201935828949" fill="#ffb811" stroke="none" /><path d="M 80.2630227832202 92.82701384747504 l -20.20895577376186 -7.344516758064834 a42.50218174686834,42.50218174686834 0 0,0 0.2558133691178113,-0.6854526468303883 l 20.07953781614242 7.691292541924564" fill="#fff817" stroke="none" /><path d="M 80.38941819471856 92.48833698450439 l -58.83174541584431 -22.534989046486853 a84.0,84.0 0 0,0 0.5288258004732356,-1.3458039804169464 l 58.435126065489385 23.544342031799562" fill="#4dd2ff" stroke="none" /><line stroke="#e1ed5e" stroke-width="0.3" x1="26.266209847984243" x2="21.928928074336255" y1="57.711370442889674" y2="55.22380399835377" /><path d="M 25.398753493254645 57.213857153982495 a86.0,86.0 0 0,1 29.58750427330803,-30.492523968695096" fill="none" id="id47" stroke="none" /><text fill="#e1ed5e" style="font-size:6.75px; font-family:Arial;" text-anchor="middle"><textPath startOffset="21.46611528233685" xlink:href="#id47">November</textPath></text><line stroke="#e1ed5e" stroke-width="0.3" x1="56.762969772571076" x2="54.21961505331055" y1="26.818313649435495" y2="22.513508569990535" /><path d="M 56.25429882871897 25.957352633546506 a86.0,86.0 0 0,1 42.265352541879196,-11.944610805530505" fill="none" id="id48" stroke="none" /><text fill="#e1ed5e" style="font-size:6.75px; font-family:Arial;" text-anchor="middle"><textPath startOffset="22.20632615414155" xlink:href="#id48">December</textPath></text></svg>